<?xml version="1.0" encoding="UTF-8"?>
<svg version="1.1" xmlns="http://www.w3.org/2000/svg" width="32" height="32">
<path d="M0 0 C0.33 4.95 0.66 9.9 1 15 C5.95 15.33 10.9 15.66 16 16 C14.96739684 21.16301581 14.34072214 22.24881834 10.8125 25.8125 C10.05582031 26.60269531 9.29914062 27.39289062 8.51953125 28.20703125 C6 30 6 30 3.16015625 30.67578125 C-1.61071811 29.65555719 -4.05968263 26.81490132 -7.375 23.375 C-8.01566406 22.75753906 -8.65632812 22.14007812 -9.31640625 21.50390625 C-12.12698706 18.65736919 -13.81150094 16.82856731 -14.7109375 12.875 C-13.76240333 9.03916952 -12.08338441 7.35192777 -9.25 4.625 C-8.36828125 3.75101562 -7.4865625 2.87703125 -6.578125 1.9765625 C-4 0 -4 0 0 0 Z " fill="#FF8434" transform="translate(14,2)"/>
<path d="M0 0 C5.28 0 10.56 0 16 0 C16 5.28 16 10.56 16 16 C13.545625 16.020625 11.09125 16.04125 8.5625 16.0625 C7.78849854 16.071604 7.01449707 16.08070801 6.21704102 16.09008789 C4.47778283 16.09724913 2.73854696 16.05024702 1 16 C0 15 0 15 -0.09765625 11.62109375 C-0.09191424 10.22652508 -0.07890228 8.83198403 -0.0625 7.4375 C-0.041875 4.983125 -0.02125 2.52875 0 0 Z " fill="#FF8434" transform="translate(16,0)"/>
</svg>
