<?xml version="1.0" encoding="UTF-8"?>
<svg version="1.1" xmlns="http://www.w3.org/2000/svg" width="1436" height="800">
<path d="M0 0 C473.88 0 947.76 0 1436 0 C1436 264 1436 528 1436 800 C962.12 800 488.24 800 0 800 C0 536 0 272 0 0 Z " fill="#FEFEFE" transform="translate(0,0)"/>
<path d="M0 0 C10.23 0 20.46 0 31 0 C31.33 22.11 31.66 44.22 32 67 C34.64 64.36 37.28 61.72 40 59 C42.65234375 57.01171875 42.65234375 57.01171875 44.9375 55.6875 C45.68902344 55.23761719 46.44054687 54.78773438 47.21484375 54.32421875 C54.8636439 50.6875522 61.66338576 49.44404725 70.125 49.5 C71.13328857 49.50572021 72.14157715 49.51144043 73.18041992 49.51733398 C86.19383804 49.82591564 96.95102646 53.45837249 107 62 C107.76828125 62.64582031 108.5365625 63.29164063 109.328125 63.95703125 C123.2949732 76.75997544 129.2491113 95.44431141 130.203125 113.9375 C130.6229033 135.66235526 125.68628925 156.05630863 110.79296875 172.42578125 C99.41849644 183.64934845 84.73325599 188.40058951 69.01293945 188.29882812 C57.10186203 187.97498306 46.131075 183.94213587 37.46484375 175.54296875 C35.5721913 173.42333153 33.77516694 171.21895867 32 169 C31.67 174.28 31.34 179.56 31 185 C20.77 185 10.54 185 0 185 C0 123.95 0 62.9 0 0 Z " fill="#020202" transform="translate(692,307)"/>
<path d="M0 0 C2.54719858 2.22202429 4.94659807 4.52389585 7.3203125 6.9296875 C8.403125 7.99703125 8.403125 7.99703125 9.5078125 9.0859375 C22.93304494 23.12140778 25.48431984 40.03580577 25.6328125 58.6171875 C25.66181641 59.80763672 25.69082031 60.99808594 25.72070312 62.22460938 C25.84578561 79.91897078 18.66380972 96.29461161 6.3203125 108.9296875 C-10.48751003 123.52136751 -31.01799635 127.44886209 -52.6796875 125.9296875 C-69.29271383 123.75446689 -84.14296208 115.91318981 -94.9921875 103.1171875 C-107.77942356 86.23906506 -110.75782981 64.02595081 -108.39550781 43.45507812 C-105.7546415 26.84523264 -97.27033303 11.85024683 -84.453125 0.9140625 C-60.52616787 -16.20550682 -24.01950957 -18.55734704 0 0 Z " fill="#020202" transform="translate(999.6796875,369.0703125)"/>
<path d="M0 0 C12.87795905 11.83941397 19.73451532 30.50224509 20.8125 47.75 C20.8125 52.7 20.8125 57.65 20.8125 62.75 C-11.5275 62.75 -43.8675 62.75 -77.1875 62.75 C-74.97377817 80.43374747 -74.97377817 80.43374747 -64.640625 93.27734375 C-57.88679376 97.3317934 -51.01307816 98.28294463 -43.25 98.1875 C-42.37190674 98.17847656 -41.49381348 98.16945313 -40.58911133 98.16015625 C-31.92559533 97.92837802 -25.53913438 96.51812828 -19.3125 90.1875 C-15.37341195 85.00513956 -15.37341195 85.00513956 -12.1875 74.75 C-2.2875 75.41 7.6125 76.07 17.8125 76.75 C16.36251546 88.34987635 12.77635957 97.85326657 3.8125 105.75 C3.02166016 106.54470703 3.02166016 106.54470703 2.21484375 107.35546875 C-12.21329834 121.23221688 -30.99655185 123.31181174 -50.1015625 123.02734375 C-66.54890154 122.40895334 -80.76002318 115.34131161 -92.1875 103.75 C-93.04988281 102.90308594 -93.04988281 102.90308594 -93.9296875 102.0390625 C-107.94035092 87.15726975 -109.81667845 66.26234597 -109.49609375 46.9375 C-108.84198624 29.0676086 -102.05154815 13.24319271 -89.1875 0.75 C-88.64738281 0.18925781 -88.10726562 -0.37148438 -87.55078125 -0.94921875 C-64.43717397 -23.13129526 -23.33898852 -19.07513485 0 0 Z " fill="#030303" transform="translate(652.1875,372.25)"/>
<path d="M0 0 C10.56 0 21.12 0 32 0 C32.33 32.67 32.66 65.34 33 99 C43.24091438 88.76834679 43.24091438 88.76834679 52.51904297 77.75390625 C71.71796087 53.14303623 71.71796087 53.14303623 85.96095276 51.36743164 C96.66923426 50.61344249 107.38764815 51.53899543 118 53 C114.17169018 57.65019232 110.17300375 61.86001782 105.6875 65.875 C101.76208552 69.43842948 97.90865466 73.0332023 94.1875 76.8125 C91.62428812 79.4127927 89.03122139 81.88509449 86.25 84.25 C81.69138357 88.13497473 77.54804217 92.4270918 73.39160156 96.73339844 C71.96386032 98.19186215 70.48567873 99.60060006 69 101 C68.34 101 67.68 101 67 101 C73.24614361 111.12610106 79.66630907 121.12747082 86.18554688 131.07983398 C91.1169267 138.61820577 95.95715506 146.21064724 100.76904297 153.82568359 C105.61859189 161.47012234 110.63434096 168.99771412 115.73461914 176.47705078 C116.2939917 177.30446777 116.85336426 178.13188477 117.4296875 178.984375 C117.92710449 179.71366211 118.42452148 180.44294922 118.93701172 181.19433594 C120 183 120 183 120 185 C89.17043988 188.14192758 89.17043988 188.14192758 81.32666016 183.37548828 C77.21696106 178.92928615 75.21459486 173.4840618 73.15625 167.86523438 C71.21960745 163.06615561 68.37625016 158.8857482 65.5625 154.5625 C64.48308676 152.83315262 63.4075862 151.10135714 62.3359375 149.3671875 C61.79549805 148.49803711 61.25505859 147.62888672 60.69824219 146.73339844 C57.68827626 141.88872067 54.68858035 137.037685 51.6875 132.1875 C50.58728244 130.41012972 49.48702616 128.63278341 48.38671875 126.85546875 C47.59114583 125.5703125 46.79557292 124.28515625 46 123 C44.95541681 123.87151615 43.91453593 124.74746967 42.875 125.625 C42.29492188 126.11226563 41.71484375 126.59953125 41.1171875 127.1015625 C40.06917969 128.04128906 40.06917969 128.04128906 39 129 C38.48758759 129.37774567 37.97517517 129.75549133 37.44723511 130.14468384 C34.75759913 132.3533892 33.2243355 134.01289937 32.44000244 137.46405029 C32.20983719 140.49789086 32.16927746 143.4809705 32.1953125 146.5234375 C32.18160614 147.62475006 32.16789978 148.72606262 32.15377808 149.86074829 C32.11649469 153.36591503 32.12019224 156.86966319 32.125 160.375 C32.10687225 162.75653255 32.08606934 165.13804634 32.0625 167.51953125 C32.00564487 173.34718198 32.00424536 179.17112551 32 185 C21.44 185 10.88 185 0 185 C0 123.95 0 62.9 0 0 Z " fill="#050505" transform="translate(1180,307)"/>
<path d="M0 0 C10.12330648 9.16980867 13.23616142 17.3634706 14.94921875 30.765625 C11.05451312 31.43899404 7.15828942 32.10314084 3.26171875 32.765625 C2.15892578 32.95640625 1.05613281 33.1471875 -0.08007812 33.34375 C-1.14677734 33.52421875 -2.21347656 33.7046875 -3.3125 33.890625 C-4.29178467 34.05820312 -5.27106934 34.22578125 -6.2800293 34.3984375 C-8.90989482 34.74695435 -11.40201247 34.83327113 -14.05078125 34.765625 C-14.13714844 34.20875 -14.22351562 33.651875 -14.3125 33.078125 C-15.49864926 26.63591987 -17.43281952 20.73941306 -22.65234375 16.44921875 C-30.02327917 11.88866282 -38.55880963 10.83357933 -47.05078125 11.765625 C-52.40327205 13.05161305 -56.74420944 14.45905319 -60.67578125 18.390625 C-62.87662453 22.19208158 -63.40007733 24.31209998 -63.05078125 28.765625 C-61.38138413 33.14779244 -58.79625871 34.89943481 -54.57421875 36.8046875 C-45.78325703 40.15232927 -36.56659053 42.13339083 -27.42578125 44.265625 C4.28811243 51.70169478 4.28811243 51.70169478 13.5234375 65.0390625 C19.16927779 74.77773257 19.21352386 86.26522036 17.37109375 97.1953125 C14.85989044 105.9845241 9.82836114 112.47981648 2.2578125 117.578125 C-5.7190216 121.9192592 -14.25767189 123.83470572 -23.05078125 125.765625 C-23.68209961 125.9414209 -24.31341797 126.1172168 -24.96386719 126.29833984 C-42.19935864 130.15757366 -61.58016552 125.98890253 -76.8515625 117.8046875 C-87.51298138 111.00949744 -92.29618856 102.63588982 -96.36328125 91.015625 C-97.10425124 87.51285778 -97.09731406 84.33596086 -97.05078125 80.765625 C-77.71035572 78.38264628 -77.71035572 78.38264628 -68.05078125 78.765625 C-67.81294922 79.70921875 -67.81294922 79.70921875 -67.5703125 80.671875 C-65.22155381 89.28831571 -62.8513434 95.53460603 -54.92578125 100.265625 C-44.93802151 104.80214459 -31.20150613 104.54233001 -20.93359375 100.75 C-16.77473607 98.57565947 -13.50235758 95.25231548 -12.05078125 90.765625 C-11.57881407 84.86948017 -11.57881407 84.86948017 -14.05078125 79.765625 C-20.09933633 75.68851298 -26.40446329 74.09842261 -33.42578125 72.328125 C-35.76458182 71.71452766 -38.10312377 71.09994373 -40.44140625 70.484375 C-43.51446797 69.6842259 -46.58786161 68.8854232 -49.66210938 68.08984375 C-63.33738543 64.50629719 -79.46048097 59.82377737 -88.05078125 47.765625 C-93.22659264 38.6659684 -94.46659 28.54057473 -92.58984375 18.234375 C-89.37777908 7.5023001 -82.67990963 0.27656007 -73.05078125 -5.234375 C-51.52680646 -14.89379799 -19.15929161 -15.38961355 0 0 Z " fill="#020202" transform="translate(1395.05078125,368.234375)"/>
<path d="M0 0 C0.83144531 0.66 1.66289063 1.32 2.51953125 2 C13.38367 11.1213159 20.24620442 22.90085909 22 37 C18.31425142 37.67659781 14.62616051 38.33947761 10.9375 39 C9.89916016 39.19078125 8.86082031 39.3815625 7.79101562 39.578125 C2.44515523 40.52850018 -2.56959064 41.24648667 -8 41 C-8.21914062 40.23816406 -8.43828125 39.47632813 -8.6640625 38.69140625 C-11.17225558 30.52448488 -13.93193876 22.11254207 -21.625 17.5 C-27.14339711 15.04737906 -31.78900959 14.78896072 -37.75 14.75 C-38.5234375 14.729375 -39.296875 14.70875 -40.09375 14.6875 C-47.43848525 14.63820647 -54.06286308 16.29177764 -59.625 21.4609375 C-70.41814662 33.54190275 -69.96953212 53.08102248 -69.21142578 68.34912109 C-68.4133182 78.35587878 -66.42029278 89.71103984 -59 97 C-54.01738809 100.74605129 -49.26241771 102.68687911 -43 103 C-41.5459375 103.0928125 -41.5459375 103.0928125 -40.0625 103.1875 C-31.56403018 103.50819697 -23.77022859 102.77532058 -16.90234375 97.33984375 C-12.07468746 92.34819065 -9.94580365 86.57464089 -8 80 C12.53191489 81 12.53191489 81 22 82 C22.43561623 87.98972314 21.2097398 91.70876129 18.5 96.875 C18.13688721 97.57681396 17.77377441 98.27862793 17.3996582 99.00170898 C8.97524168 114.74220985 -4.50510095 121.80941931 -21 127 C-40.51863692 131.44830814 -61.13133346 127.36188948 -78 117 C-92.40911094 106.15904508 -100.87451475 90.56565413 -103.609375 72.7890625 C-105.65013545 52.99368612 -104.19197846 31.77427581 -91.73535156 15.33056641 C-80.59546519 1.70129749 -66.33491806 -7.88822176 -48.54858398 -9.77954102 C-31.59663706 -11.24592746 -13.74166269 -11.37941753 0 0 Z " fill="#020202" transform="translate(1141,367)"/>
<path d="M0 0 C10.89 0 21.78 0 33 0 C33.99 2.97 34.98 5.94 36 9 C36.60957122 10.80896677 37.22007826 12.61761881 37.83203125 14.42578125 C41.55680372 25.47831284 45.13641214 36.5509396 48.43359375 47.73828125 C49.91067021 52.73917138 51.46137886 57.71587986 53.01367188 62.69384766 C55.83504205 71.75559479 58.58516418 80.82041955 61 90 C61.20761963 90.78898682 61.41523926 91.57797363 61.62915039 92.39086914 C63 97.72261697 63 97.72261697 63 100 C63.66 100 64.32 100 65 100 C65.226875 98.70449219 65.45375 97.40898437 65.6875 96.07421875 C67.27134937 88.18127708 69.6830831 80.51364486 72 72.8125 C72.24165894 72.00408661 72.48331787 71.19567322 72.7322998 70.36276245 C77.22613264 55.33233444 81.98789488 40.39846365 86.86425781 25.48828125 C88.64420949 20.02139614 90.38654175 14.54269517 92.125 9.0625 C93.07375 6.071875 94.0225 3.08125 95 0 C105.89 0 116.78 0 128 0 C127.2529885 3.73505749 126.43164078 6.86411022 125.1640625 10.40625 C124.57189941 12.06877808 124.57189941 12.06877808 123.96777344 13.76489258 C123.5246582 14.99747803 123.08154297 16.23006348 122.625 17.5 C122.1458785 18.84063877 121.66704858 20.18138178 121.18847656 21.5222168 C119.78755351 25.44364894 118.38166946 29.36328861 116.97497559 33.28265381 C115.55877322 37.22973943 114.14467208 41.1775772 112.73034668 45.12533569 C109.92013526 52.9693387 107.10913616 60.81305594 104.29394531 68.65527344 C100.34037691 79.67003272 96.39492837 90.6875066 92.4765625 101.71484375 C91.77508384 103.68709976 91.07358694 105.65934929 90.37207031 107.6315918 C89.06368438 111.31036985 87.75892881 114.99040944 86.45605469 118.67114258 C85.87448931 120.30685329 85.29279187 121.94251706 84.7109375 123.578125 C84.44834137 124.32331894 84.18574524 125.06851288 83.91519165 125.83628845 C82.11369257 130.88630743 82.11369257 130.88630743 81 132 C78.47905924 132.08847743 75.98569107 132.11527301 73.46484375 132.09765625 C72.33496788 132.09553383 72.33496788 132.09553383 71.18226624 132.09336853 C68.7673044 132.08775376 66.35243399 132.07519883 63.9375 132.0625 C62.30403779 132.0574869 60.67057414 132.05292366 59.03710938 132.04882812 C55.02470415 132.03777954 51.01236759 132.02050506 47 132 C42.19332032 121.26290484 38.45282261 110.13896983 34.5864563 99.03945923 C32.49940495 93.04948464 30.40005999 87.0638232 28.30078125 81.078125 C27.86795334 79.84347 27.43512543 78.608815 26.98918152 77.33674622 C22.24038761 63.80715117 17.40826583 50.30765262 12.5625 36.8125 C12.15835876 35.68643341 11.75421753 34.56036682 11.33782959 33.400177 C9.52572011 28.35190627 7.71250407 23.30403343 5.89672852 18.25708008 C5.43533981 16.97252426 5.43533981 16.97252426 4.96463013 15.66201782 C4.27445231 13.75738556 3.57523859 11.856018 2.87008667 9.95687866 C2.50295563 8.96523712 2.13582458 7.97359558 1.75756836 6.9519043 C1.42131943 6.05134811 1.0850705 5.15079193 0.7386322 4.22294617 C0 2 0 2 0 0 Z " fill="#020202" transform="translate(413,360)"/>
<path d="M0 0 C0.66 0 1.32 0 2 0 C1.88555542 1.01308228 1.88555542 1.01308228 1.76879883 2.04663086 C0.84611376 10.68316542 0.27651629 19.32039012 0 28 C-0.03310335 29.03562828 -0.03310335 29.03562828 -0.06687546 30.09217834 C-0.55756635 48.84955927 1.32192435 62.44112684 14.54727173 76.79187012 C28.52037478 91.00889514 28.52037478 91.00889514 45 102 C45 102.66 45 103.32 45 104 C-3.51 104 -52.02 104 -102 104 C-102 103.34 -102 102.68 -102 102 C-100.58150387 100.60039234 -100.58150387 100.60039234 -98.58934021 98.95625305 C-93.67172451 94.77058258 -89.12951271 90.26990276 -84.57055664 85.69995117 C-83.66391266 84.79505951 -82.75726868 83.89016785 -81.82315063 82.95785522 C-79.36056607 80.49978902 -76.90110593 78.0386196 -74.44237447 75.57669997 C-71.86188642 72.9936638 -69.27894095 70.41308676 -66.69639587 67.83210754 C-62.36830897 63.50583325 -58.04232033 59.17746925 -53.7175293 54.84790039 C-48.71600596 49.84091551 -43.71086256 44.837571 -38.70386416 39.83606166 C-34.39699942 35.53372939 -30.09207939 31.22945853 -25.78879064 26.92354947 C-23.2217041 24.35490355 -20.65394564 21.78693911 -18.08442879 19.22072411 C-15.22798234 16.36769317 -12.37562562 13.51060785 -9.52368164 10.65307617 C-8.67022659 9.80164536 -7.81677155 8.95021454 -6.93745422 8.07298279 C-6.16512451 7.29783325 -5.3927948 6.52268372 -4.59706116 5.7240448 C-3.92255952 5.04916614 -3.24805788 4.37428747 -2.5531168 3.67895794 C-0.91740327 2.06737257 -0.91740327 2.06737257 0 0 Z " fill="#020202" transform="translate(200,388)"/>
<path d="M0 0 C48.51 0 97.02 0 147 0 C140.24974298 7.87529985 140.24974298 7.87529985 136.60270691 11.52427673 C135.77973114 12.35007233 134.95675537 13.17586792 134.10884094 14.02668762 C133.22496201 14.90854233 132.34108307 15.79039703 131.43041992 16.69897461 C130.47529816 17.65545393 129.52038871 18.6121453 128.56567383 19.56903076 C125.99192197 22.14731107 123.41505415 24.72245522 120.83744597 27.29687953 C118.13649118 29.99529132 115.43798967 32.69615475 112.73908997 35.3966217 C108.21433019 39.92319564 103.68747695 44.44766793 99.15942383 48.97094727 C93.91897707 54.20593309 88.68216909 59.44453828 83.44719809 64.68499941 C78.94872325 69.18800335 74.44831388 73.68906689 69.94626313 78.1884957 C67.25858471 80.87461276 64.57159223 83.56140663 61.886343 86.24995232 C59.36790706 88.77126468 56.84706098 91.29014165 54.32428741 93.80711365 C52.95236065 95.17707648 51.58291019 96.54951774 50.21351624 97.92201233 C49.40463959 98.72806915 48.59576294 99.53412598 47.76237488 100.36460876 C47.05577823 101.07082839 46.34918158 101.77704802 45.6211729 102.50466824 C44 104 44 104 43 104 C43.08073761 103.32905304 43.16147522 102.65810608 43.24465942 101.96682739 C44.2231557 93.36936012 44.82587293 84.77085685 45.125 76.125 C45.14907551 75.43629318 45.17315102 74.74758636 45.19795609 74.03800964 C45.72572438 55.80771178 43.7968135 41.89700675 31.19625092 28.11735916 C22.21290112 18.61625186 12.01183097 10.15857184 1.5877533 2.30426025 C1.06379471 1.87385437 0.53983612 1.44344849 0 1 C0 0.67 0 0.34 0 0 Z " fill="#010101" transform="translate(27,371)"/>
<path d="M0 0 C10.56 0 21.12 0 32 0 C32 61.05 32 122.1 32 185 C21.44 185 10.88 185 0 185 C0 123.95 0 62.9 0 0 Z " fill="#070707" transform="translate(311,307)"/>
<path d="M0 0 C10.23 0 20.46 0 31 0 C31 61.05 31 122.1 31 185 C20.77 185 10.54 185 0 185 C0 123.95 0 62.9 0 0 Z " fill="#010101" transform="translate(841,307)"/>
<path d="M0 0 C9.82446118 8.09166786 12.3447327 17.95230631 13.5390625 30.30078125 C14.52801487 45.65893044 15.4152255 63.46683314 6.0078125 76.66015625 C-0.01963278 83.39294087 -7.05441094 86.87301212 -16.015625 87.58203125 C-26.19222325 87.82774388 -34.32134238 87.23573079 -42.3359375 80.61328125 C-46.19402819 76.9048872 -48.58031901 73.28442025 -50.4609375 68.30078125 C-50.8528125 67.33140625 -51.2446875 66.36203125 -51.6484375 65.36328125 C-53.83621126 57.1170571 -53.67307061 48.52349797 -53.7109375 40.05078125 C-53.7315625 38.91253906 -53.7521875 37.77429688 -53.7734375 36.6015625 C-53.83252664 23.58717914 -51.88719144 12.2325783 -42.796875 2.5234375 C-32.21484791 -7.35795309 -11.95975821 -8.25792829 0 0 Z " fill="#FDFDFD" transform="translate(978.4609375,384.69921875)"/>
<path d="M0 0 C7.83916892 4.83006454 11.8006924 12.0647024 14.3203125 20.72265625 C18.1362801 38.42955352 19.1232408 61.40638249 9.37109375 77.4609375 C5.0916185 84.02454984 -0.12045905 86.70342437 -7.453125 89.04296875 C-16.33753506 90.74966871 -25.93748927 90.50014173 -33.62890625 85.4609375 C-42.8265465 79.09051601 -47.18197031 69.0902361 -49.23046875 58.2890625 C-51.04703913 40.83573921 -50.31138944 23.87126343 -41.87890625 8.2109375 C-31.86119227 -4.03293515 -14.22276581 -6.10474879 0 0 Z " fill="#FCFCFC" transform="translate(771.62890625,382.5390625)"/>
<path d="M0 0 C10.56 0 21.12 0 32 0 C32 43.56 32 87.12 32 132 C21.44 132 10.88 132 0 132 C0 88.44 0 44.88 0 0 Z " fill="#070707" transform="translate(369,360)"/>
<path d="M0 0 C7.46862668 6.34231841 11.03850659 12.57962231 13.23046875 22.078125 C13.23046875 23.398125 13.23046875 24.718125 13.23046875 26.078125 C-8.54953125 26.078125 -30.32953125 26.078125 -52.76953125 26.078125 C-51.60723455 15.61745469 -49.31974576 8.63796634 -41.51953125 1.4765625 C-30.59645415 -7.25214643 -11.47644878 -7.96391086 0 0 Z " fill="#FCFCFC" transform="translate(627.76953125,384.921875)"/>
<path d="M0 0 C10.23 0 20.46 0 31 0 C31 11.22 31 22.44 31 34 C20.77 34 10.54 34 0 34 C0 22.78 0 11.56 0 0 Z " fill="#050505" transform="translate(369,306)"/>
</svg>
