<svg class="relative z-20 brightness-150 drop-shadow-[0_0_8px_theme(colors.sky.300/50%)]" width="14" height="14" viewBox="0 0 14 14" fill="none" xmlns="http://www.w3.org/2000/svg"><path fill-rule="evenodd" clip-rule="evenodd" d="M10.9419 1.82065C11.128 1.63454 11.1093 1.32641 10.8906 1.17994C9.77796 0.434669 8.43972 0 6.99997 0C3.13399 0 0 3.13401 0 7C0 8.43976 0.434666 9.778 1.17993 10.8906C1.32641 11.1093 1.63453 11.128 1.82064 10.9419L3.41924 9.3433C3.56372 9.19882 3.58655 8.97468 3.49338 8.79283C3.21791 8.2551 3.06248 7.6457 3.06248 7C3.06248 4.82538 4.82535 3.0625 6.99997 3.0625C7.64566 3.0625 8.25506 3.21792 8.79278 3.4934C8.97463 3.58656 9.19877 3.56374 9.34325 3.41926L10.9419 1.82065ZM9.18748 7C9.18748 8.20812 8.20811 9.1875 6.99999 9.1875C5.79187 9.1875 4.8125 8.20812 4.8125 7C4.8125 5.79188 5.79187 4.8125 6.99999 4.8125C8.20811 4.8125 9.18748 5.79188 9.18748 7ZM10.9432 12.1792C11.1293 12.3653 11.1106 12.6734 10.8919 12.8199C9.77931 13.5652 8.44107 13.9998 7.00131 13.9998C5.56155 13.9998 4.22331 13.5652 3.11067 12.8199C2.89199 12.6734 2.8733 12.3653 3.05942 12.1792L4.65801 10.5806C4.80249 10.4361 5.02663 10.4133 5.20848 10.5064C5.74621 10.7819 6.35561 10.9373 7.00131 10.9373C7.64701 10.9373 8.25641 10.7819 8.79413 10.5064C8.97599 10.4133 9.20012 10.4361 9.34461 10.5806L10.9432 12.1792Z" fill="#5DE3FF"></path></svg>