<svg class="w-12 h-12" viewBox="0 0 96 96" fill="none" xmlns="http://www.w3.org/2000/svg"><path d="M73.5587 38.8281C73.3363 40.3594 72.3265 42.4398 71.1682 44.2486C69.7066 46.5309 67.3872 48.1294 64.7327 48.6845L53.0396 51.1296C51.1603 51.5226 49.4561 52.5062 48.1766 53.9364L40.5096 62.5064C39.0686 64.1171 38.0616 63.733 38.0616 61.5728C38.0441 61.6529 34.2564 71.421 44.2943 77.2108C48.1512 79.4354 53.703 78.6361 57.5599 76.4115L77.9955 64.6241C85.638 60.2159 91.034 52.7585 92.8276 44.1261C92.8985 43.7846 92.9533 43.4419 93.0125 43.0994L73.5587 38.8281Z" fill="url(#paint0_linear_3773_41031)"></path><path d="M68.2588 27.0538C72.1157 29.2784 73.6915 32.5904 73.6915 37.0397C73.6915 37.6437 73.644 38.2404 73.5586 38.8281L81.7928 42.3651L93.0124 43.0994C94.4491 34.7849 91.6336 26.2266 86.5864 19.4239C82.7881 14.3046 77.9005 9.86195 72.0246 6.47268C67.2515 3.71952 62.2913 1.90556 57.3078 0.910217L51.7085 8.16124L49.9398 16.4873L68.2588 27.0538Z" fill="url(#paint1_linear_3773_41031)"></path><path d="M2.35079 33.1554C2.3487 33.162 2.3545 33.1639 2.35668 33.1573C2.78875 31.8614 3.33054 30.4156 4.00691 28.8711C7.54003 20.8029 14.3486 15.4219 22.7247 12.6782C31.1009 9.93467 40.2465 10.8964 47.8804 15.2996L49.9396 16.4873L57.3075 0.910235C33.8729 -3.77029 9.92184 9.9976 2.38059 33.0651C2.37698 33.0762 2.36387 33.1147 2.35079 33.1554Z" fill="url(#paint2_linear_3773_41031)"></path><path d="M56.7594 76.4114C52.9026 78.6361 48.1507 78.6361 44.2939 76.4114C43.7704 76.1094 43.2768 75.7699 42.81 75.4023L36.027 80.0657L30.1807 89.513C36.6698 94.9132 45.0962 96.6493 53.5167 95.6838C59.8535 94.9572 66.1483 92.9497 72.0243 89.5605C76.7974 86.8073 80.8499 83.4227 84.2045 79.6086L80.7186 71.1387L75.0784 65.8449L56.7594 76.4114Z" fill="url(#paint3_linear_3773_41031)"></path><path d="M42.8101 75.4023C39.8385 73.0616 38.0612 69.4715 38.0612 65.6262V65.2427V33.2172C38.0612 31.406 38.5948 31.0982 40.1648 32.0038C37.7467 30.609 32.1606 25.8209 25.2633 29.7993C21.4065 32.024 18.2305 36.9346 18.2305 41.3838V64.9585C18.2305 73.775 22.7969 82.9717 29.3832 88.8397C29.6437 89.0718 29.9134 89.2906 30.1807 89.513L42.8101 75.4023Z" fill="url(#paint4_linear_3773_41031)"></path><path d="M83.7313 15.9372C83.7266 15.9321 83.7221 15.9362 83.7267 15.9413C84.634 16.9631 85.6164 18.1547 86.6171 19.5122C91.8444 26.6032 93.7975 35.5842 91.9878 44.2031C90.1779 52.8219 84.7715 60.2539 77.1376 64.6572L75.0784 65.8449L84.2045 79.6086C99.9791 61.6731 100.02 34.0666 83.7946 16.0081C83.7869 15.9994 83.7601 15.9688 83.7313 15.9372Z" fill="url(#paint5_linear_3773_41031)"></path><path d="M19.0306 41.384C19.0306 36.9347 21.4065 32.8234 25.2634 30.5987C25.7869 30.2968 26.328 30.0395 26.8801 29.8195L26.2291 21.619L21.6558 12.2368C13.7301 15.1511 7.31911 21.1739 3.94584 28.9422C1.40729 34.7881 2.9376e-05 41.2382 0 48.0167C0 53.523 0.907647 58.7215 2.5366 63.531L11.6217 64.75L19.0306 62.5169V41.384Z" fill="url(#paint6_linear_3773_41031)"></path><path d="M26.8801 29.8194C30.3949 28.4188 34.3956 28.6761 37.7289 30.5987L38.0613 30.7905L64.7475 46.1832C66.6195 47.263 66.4493 48.3255 64.3336 48.7679L65.873 48.446C67.8987 48.0224 69.7493 46.9872 71.1646 45.4786C73.598 42.8849 74.4913 39.7555 74.4913 37.0397C74.4913 32.5904 72.1154 28.4791 68.2586 26.2545L47.823 14.4672C40.1805 10.0589 31.0181 9.11895 22.6383 11.8834C22.3068 11.9927 21.9823 12.1167 21.6559 12.2368L26.8801 29.8194Z" fill="url(#paint7_linear_3773_41031)"></path><path d="M57.9666 94.9572C57.9733 94.9558 57.9721 94.9498 57.9653 94.9512C56.6259 95.2253 55.1017 95.4795 53.4247 95.6666C44.6642 96.6438 35.9025 93.8431 29.3362 87.9679C22.7698 82.0926 19.0307 73.6988 19.0307 64.8923L19.0306 62.5169L2.53662 63.531C10.1967 86.147 34.1068 99.9857 57.8734 94.9766C57.8848 94.9742 57.9247 94.9663 57.9666 94.9572Z" fill="url(#paint8_linear_3773_41031)"></path><defs><linearGradient id="paint0_linear_3773_41031" x1="60.1803" y1="71.3098" x2="69.6229" y2="38.4204" gradientUnits="userSpaceOnUse"><stop stop-color="#1724C9"></stop><stop offset="1" stop-color="#1C64F2"></stop></linearGradient><linearGradient id="paint1_linear_3773_41031" x1="81.9283" y1="31.2009" x2="57.0893" y2="6.4494" gradientUnits="userSpaceOnUse"><stop stop-color="#1C64F2"></stop><stop offset="1" stop-color="#0092FF"></stop></linearGradient><linearGradient id="paint2_linear_3773_41031" x1="48.4934" y1="15.0634" x2="11.0229" y2="17.4312" gradientUnits="userSpaceOnUse"><stop stop-color="#0092FF"></stop><stop offset="1" stop-color="#45B2FF"></stop></linearGradient><linearGradient id="paint3_linear_3773_41031" x1="45.9592" y1="85.988" x2="79.6097" y2="76.9078" gradientUnits="userSpaceOnUse"><stop stop-color="#1C64F2"></stop><stop offset="1" stop-color="#0092FF"></stop></linearGradient><linearGradient id="paint4_linear_3773_41031" x1="21.8062" y1="47.0481" x2="45.6971" y2="71.8041" gradientUnits="userSpaceOnUse"><stop stop-color="#1724C9"></stop><stop offset="1" stop-color="#1C64F2"></stop></linearGradient><linearGradient id="paint5_linear_3773_41031" x1="76.3512" y1="64.907" x2="93.0206" y2="31.3036" gradientUnits="userSpaceOnUse"><stop stop-color="#0092FF"></stop><stop offset="1" stop-color="#45B2FF"></stop></linearGradient><linearGradient id="paint6_linear_3773_41031" x1="16.0916" y1="27.3929" x2="7.17161" y2="60.9197" gradientUnits="userSpaceOnUse"><stop stop-color="#1C64F2"></stop><stop offset="1" stop-color="#0092FF"></stop></linearGradient><linearGradient id="paint7_linear_3773_41031" x1="61.6292" y1="25.7983" x2="29.033" y2="33.9141" gradientUnits="userSpaceOnUse"><stop stop-color="#1724C9"></stop><stop offset="1" stop-color="#1C64F2"></stop></linearGradient><linearGradient id="paint8_linear_3773_41031" x1="19.2203" y1="64.07" x2="39.9976" y2="95.3239" gradientUnits="userSpaceOnUse"><stop stop-color="#0092FF"></stop><stop offset="1" stop-color="#45B2FF"></stop></linearGradient></defs></svg>