<?xml version="1.0" encoding="UTF-8"?>
<svg version="1.1" xmlns="http://www.w3.org/2000/svg" width="1436" height="800">
<path d="M0 0 C12.21 0 24.42 0 37 0 C37.33 19.47 37.66 38.94 38 59 C41.3 57.02 44.6 55.04 48 53 C56.28052587 48.88722885 64.53470531 48.62517789 73.625 48.5625 C74.67373291 48.55234863 75.72246582 48.54219727 76.80297852 48.53173828 C92.19039809 48.70320603 106.4160645 54.2685742 117.2734375 65.3125 C123 71.58157895 123 71.58157895 123 74 C123.66 74 124.32 74 125 74 C125 74.99 125 75.98 125 77 C125.66 77 126.32 77 127 77 C127 78.32 127 79.64 127 81 C127.66 81 128.32 81 129 81 C138.36839926 101.05565085 139.58476104 127.75027665 133 149 C131.28587306 153.48054692 129.24380497 157.75928122 127 162 C126.34 162 125.68 162 125 162 C125 162.99 125 163.98 125 165 C124.34 165 123.68 165 123 165 C122.90460938 165.57105469 122.80921875 166.14210938 122.7109375 166.73046875 C120.38533277 174.15451462 112.51262506 179.61188626 106.12890625 183.4296875 C97.72037295 187.64970046 88.45844634 190.76768728 79 191 C78.07960938 191.03867187 77.15921875 191.07734375 76.2109375 191.1171875 C61.55741453 191.4579671 49.12339627 188.26287344 37 180 C37 182.31 37 184.62 37 187 C33.95634906 188.52182547 30.77787609 188.18360092 27.4375 188.203125 C26.69040771 188.20882507 25.94331543 188.21452515 25.17358398 188.22039795 C23.59327613 188.22984679 22.01294859 188.23638147 20.43261719 188.24023438 C18.0094194 188.24996219 15.58706193 188.28099412 13.1640625 188.3125 C11.63021338 188.31902787 10.09635819 188.32427919 8.5625 188.328125 C7.83538818 188.3404718 7.10827637 188.3528186 6.35913086 188.36553955 C4.31640625 188.35644531 4.31640625 188.35644531 1 188 C-1.33640402 184.49539397 -1.24829737 183.12469728 -1.24291992 178.98193359 C-1.24595627 177.71558075 -1.24899261 176.44922791 -1.25212097 175.14450073 C-1.24516142 173.72914503 -1.23793402 172.31379063 -1.23046875 170.8984375 C-1.22960792 169.39543685 -1.2295335 167.89243557 -1.23017883 166.38943481 C-1.22900861 162.25389737 -1.21445233 158.11849967 -1.19723511 153.98300171 C-1.18422704 150.49818555 -1.1786654 147.01337202 -1.17279625 143.52853775 C-1.08657984 95.68439118 -0.52474298 47.8409292 0 0 Z M45 84 C40.08616464 91.41921796 40.08616464 91.41921796 39 100 C38.34 100 37.68 100 37 100 C36.16065633 107.0426479 35.84535696 113.97287238 35.875 121.0625 C35.87113281 121.99126953 35.86726562 122.92003906 35.86328125 123.87695312 C35.87140211 129.66306415 36.25987102 135.26106342 37 141 C37.66 141 38.32 141 39 141 C39 142.65 39 144.3 39 146 C39.66 146 40.32 146 41 146 C41.103125 146.556875 41.20625 147.11375 41.3125 147.6875 C42.14178408 150.4769101 43.34299056 152.6139064 45 155 C45.66 155 46.32 155 47 155 C47.2784375 155.86625 47.2784375 155.86625 47.5625 156.75 C49.92003524 160.44005515 53.74817315 162.27922697 57.8671875 163.59765625 C67.30070576 165.37723936 75.44664527 163.93807143 83.5 158.9375 C84.325 158.298125 85.15 157.65875 86 157 C86 156.34 86 155.68 86 155 C86.66 155 87.32 155 88 155 C88.61875 153.948125 89.2375 152.89625 89.875 151.8125 C90.22304688 151.22082031 90.57109375 150.62914062 90.9296875 150.01953125 C98.99363673 134.8039774 96.57832441 113.44123304 94 97 C92.19830242 91.9755476 89.19288894 87.25718525 86 83 C85.34 83 84.68 83 84 83 C84 82.34 84 81.68 84 81 C82.9275 80.360625 81.855 79.72125 80.75 79.0625 C80.14671875 78.70285156 79.5434375 78.34320313 78.921875 77.97265625 C68.526162 72.71141126 52.86959447 75.47460599 45 84 Z " fill="#FEFEFE" transform="translate(689,306)"/>
<path d="M0 0 C1.90458984 0.00773437 1.90458984 0.00773437 3.84765625 0.015625 C5.82572266 0.0465625 5.82572266 0.0465625 7.84375 0.078125 C9.16246094 0.08328125 10.48117187 0.0884375 11.83984375 0.09375 C22.43280976 0.17978424 22.43280976 0.17978424 27.34375 1.328125 C27.36880615 2.02373535 27.3938623 2.7193457 27.41967773 3.43603516 C27.53620974 6.60855955 27.65867568 9.78082855 27.78125 12.953125 C27.82056641 14.04753906 27.85988281 15.14195312 27.90039062 16.26953125 C27.94228516 17.33300781 27.98417969 18.39648438 28.02734375 19.4921875 C28.08233032 20.95325928 28.08233032 20.95325928 28.13842773 22.44384766 C28.29149208 25.32585506 28.29149208 25.32585506 28.8494873 28.12158203 C29.34157844 31.31403697 29.46408486 34.2894031 29.45727539 37.51708984 C29.45719986 38.71788177 29.45712433 39.91867371 29.45704651 41.15585327 C29.45188522 42.43731232 29.44672394 43.71877136 29.44140625 45.0390625 C29.43953895 46.37570136 29.43811652 47.71234092 29.43711853 49.04898071 C29.43331795 52.55061769 29.42350891 56.05221256 29.41241455 59.55383301 C29.40214732 63.13353913 29.39760957 66.71325212 29.39257812 70.29296875 C29.38188422 77.30470469 29.36483764 84.31641282 29.34375 91.328125 C30.00375 91.328125 30.66375 91.328125 31.34375 91.328125 C32.00375 90.008125 32.66375 88.688125 33.34375 87.328125 C34.00375 87.328125 34.66375 87.328125 35.34375 87.328125 C35.34375 86.668125 35.34375 86.008125 35.34375 85.328125 C36.00375 85.328125 36.66375 85.328125 37.34375 85.328125 C38.00375 83.678125 38.66375 82.028125 39.34375 80.328125 C40.00375 80.328125 40.66375 80.328125 41.34375 80.328125 C41.570625 79.8125 41.7975 79.296875 42.03125 78.765625 C43.82592618 75.43265495 45.84340015 72.18108829 48.34375 69.328125 C49.00375 69.328125 49.66375 69.328125 50.34375 69.328125 C50.34375 68.338125 50.34375 67.348125 50.34375 66.328125 C51.00375 66.328125 51.66375 66.328125 52.34375 66.328125 C52.34375 65.668125 52.34375 65.008125 52.34375 64.328125 C53.00375 64.328125 53.66375 64.328125 54.34375 64.328125 C54.61703125 63.73128906 54.8903125 63.13445312 55.171875 62.51953125 C57.7258042 57.74368365 61.25154251 55.05809104 66.35546875 53.27734375 C81.65213353 49.59707435 96.94452502 51.45343674 112.34375 53.328125 C113.60587915 57.81824508 113.60587915 57.81824508 112.41796875 60.12890625 C111.09960502 61.5661084 109.72281362 62.94906138 108.34375 64.328125 C107.68375 64.328125 107.02375 64.328125 106.34375 64.328125 C106.34375 64.988125 106.34375 65.648125 106.34375 66.328125 C102.88221154 69.328125 102.88221154 69.328125 100.34375 69.328125 C100.34375 69.988125 100.34375 70.648125 100.34375 71.328125 C99.68375 71.328125 99.02375 71.328125 98.34375 71.328125 C97.9415625 72.2253125 97.9415625 72.2253125 97.53125 73.140625 C96.34457594 75.32660354 95.24775887 76.74145094 93.34375 78.328125 C92.68375 78.328125 92.02375 78.328125 91.34375 78.328125 C91.34375 78.988125 91.34375 79.648125 91.34375 80.328125 C90.68375 80.328125 90.02375 80.328125 89.34375 80.328125 C89.34375 80.988125 89.34375 81.648125 89.34375 82.328125 C88.68375 82.328125 88.02375 82.328125 87.34375 82.328125 C87.34375 82.988125 87.34375 83.648125 87.34375 84.328125 C85.69921875 86.01953125 85.69921875 86.01953125 83.53125 87.890625 C82.82355469 88.51066406 82.11585937 89.13070312 81.38671875 89.76953125 C79.34375 91.328125 79.34375 91.328125 76.34375 92.328125 C76.34375 92.988125 76.34375 93.648125 76.34375 94.328125 C75.68375 94.328125 75.02375 94.328125 74.34375 94.328125 C74.34375 94.988125 74.34375 95.648125 74.34375 96.328125 C73.68375 96.328125 73.02375 96.328125 72.34375 96.328125 C72.34375 96.988125 72.34375 97.648125 72.34375 98.328125 C71.68375 98.328125 71.02375 98.328125 70.34375 98.328125 C70.055 98.905625 69.76625 99.483125 69.46875 100.078125 C68.42708333 102.16145833 67.38541667 104.24479167 66.34375 106.328125 C67.00375 107.25625 67.66375 108.184375 68.34375 109.140625 C70.34375 112.328125 70.34375 112.328125 70.34375 115.328125 C71.00375 115.328125 71.66375 115.328125 72.34375 115.328125 C73.00375 117.308125 73.66375 119.288125 74.34375 121.328125 C75.00375 121.328125 75.66375 121.328125 76.34375 121.328125 C76.34375 122.318125 76.34375 123.308125 76.34375 124.328125 C77.00375 124.328125 77.66375 124.328125 78.34375 124.328125 C78.34375 125.318125 78.34375 126.308125 78.34375 127.328125 C79.00375 127.328125 79.66375 127.328125 80.34375 127.328125 C82.38544485 130.23361382 83.34375 131.72954546 83.34375 135.328125 C84.00375 135.328125 84.66375 135.328125 85.34375 135.328125 C85.7459375 136.09382813 85.7459375 136.09382813 86.15625 136.875 C89.33112072 142.76522068 92.93659578 148.24284337 96.76953125 153.7265625 C98.34375 156.328125 98.34375 156.328125 98.34375 159.328125 C99.00375 159.328125 99.66375 159.328125 100.34375 159.328125 C101.68535786 161.13174351 102.94221897 162.99877933 104.15625 164.890625 C106.47027957 168.46493661 108.78427253 171.98776671 111.34375 175.390625 C113.34375 178.328125 113.34375 178.328125 113.34375 181.328125 C114.00375 181.328125 114.66375 181.328125 115.34375 181.328125 C115.34375 183.638125 115.34375 185.948125 115.34375 188.328125 C106.48172668 191.28213277 97.42395506 191.43184781 88.15625 191.578125 C87.40819092 191.59955566 86.66013184 191.62098633 85.8894043 191.64306641 C80.40785462 191.67571267 76.37960175 190.49530922 71.34375 188.328125 C71.34375 187.668125 71.34375 187.008125 71.34375 186.328125 C70.68375 186.328125 70.02375 186.328125 69.34375 186.328125 C69.34375 185.668125 69.34375 185.008125 69.34375 184.328125 C68.68375 184.328125 68.02375 184.328125 67.34375 184.328125 C66.65539063 182.70003906 66.65539063 182.70003906 65.953125 181.0390625 C65.33364761 179.59361527 64.71383825 178.14831028 64.09375 176.703125 C63.79339844 175.99027344 63.49304687 175.27742187 63.18359375 174.54296875 C61.71996614 171.14859834 60.23574333 168.02423122 58.109375 164.9921875 C56.34375 162.328125 56.34375 162.328125 56.34375 159.328125 C55.68375 159.328125 55.02375 159.328125 54.34375 159.328125 C54.34375 158.338125 54.34375 157.348125 54.34375 156.328125 C53.68375 156.328125 53.02375 156.328125 52.34375 156.328125 C50.8831215 153.68073584 50.34375 152.43364166 50.34375 149.328125 C49.68375 149.328125 49.02375 149.328125 48.34375 149.328125 C47.19873047 147.76757812 47.19873047 147.76757812 45.9609375 145.609375 C45.51621094 144.84238281 45.07148437 144.07539063 44.61328125 143.28515625 C44.15308594 142.47433594 43.69289063 141.66351563 43.21875 140.828125 C42.75082031 140.01730469 42.28289062 139.20648438 41.80078125 138.37109375 C40.64173228 136.36049859 39.48978529 134.34615739 38.34375 132.328125 C33.74561061 133.99821837 33.74561061 133.99821837 30.34375 137.328125 C28.27754128 143.13653097 28.00614688 148.50527014 27.9296875 154.63671875 C27.91032135 155.60344009 27.8909552 156.57016144 27.8710022 157.56617737 C27.81155809 160.63257213 27.76496231 163.69900516 27.71875 166.765625 C27.68053783 168.85353136 27.64148424 170.9414225 27.6015625 173.02929688 C27.50588562 178.12878162 27.42172545 183.22834011 27.34375 188.328125 C24.30885104 189.84557448 21.14699014 189.5116988 17.81640625 189.53125 C17.07168564 189.53695007 16.32696503 189.54265015 15.55967712 189.54852295 C13.98356549 189.55797291 12.40743409 189.56450692 10.83129883 189.56835938 C8.41908397 189.57807332 6.00771823 189.60909861 3.59570312 189.640625 C2.06510923 189.64715432 0.53450924 189.65240507 -0.99609375 189.65625 C-2.07901955 189.6747702 -2.07901955 189.6747702 -3.18382263 189.69366455 C-8.11201195 189.67172172 -8.11201195 189.67172172 -10.34597015 188.26134491 C-12.31929082 185.34985787 -12.076472 182.43763005 -12.05065918 179.04016113 C-12.05675028 178.29242447 -12.06284139 177.54468781 -12.06911707 176.77429247 C-12.08580484 174.26148458 -12.08096319 171.74918023 -12.07617188 169.23632812 C-12.0835088 167.43781505 -12.09209392 165.6393067 -12.10183716 163.84080505 C-12.12409975 158.95039985 -12.12698154 154.0601629 -12.12508965 149.16971397 C-12.12497018 145.09140725 -12.1335243 141.01313648 -12.14186716 136.93483973 C-12.16111771 127.31672435 -12.16397878 117.69869577 -12.15722656 108.08056641 C-12.15058159 98.1471477 -12.17346472 88.21409993 -12.21054029 78.28075647 C-12.24119 69.76095255 -12.25260256 61.24126826 -12.24870348 52.72141027 C-12.24663136 47.62898437 -12.25218652 42.53684714 -12.27659607 37.44447327 C-12.29878318 32.65745851 -12.29705282 27.87104904 -12.27666855 23.08403206 C-12.27324437 21.32437233 -12.27840778 19.56467247 -12.29265213 17.80506706 C-12.31072206 15.40802574 -12.29819024 13.01306493 -12.27770996 10.61608887 C-12.29022781 9.91483021 -12.30274566 9.21357156 -12.31564283 8.49106264 C-12.27986908 6.54686737 -12.27986908 6.54686737 -11.65625 3.328125 C-7.85802181 0.19277371 -4.84540889 -0.03914119 0 0 Z " fill="#FEFEFE" transform="translate(1186.65625,304.671875)"/>
<path d="M0 0 C0.51046875 0.45503906 1.0209375 0.91007812 1.546875 1.37890625 C1.546875 2.03890625 1.546875 2.69890625 1.546875 3.37890625 C2.206875 3.37890625 2.866875 3.37890625 3.546875 3.37890625 C3.546875 4.03890625 3.546875 4.69890625 3.546875 5.37890625 C4.206875 5.37890625 4.866875 5.37890625 5.546875 5.37890625 C5.546875 6.03890625 5.546875 6.69890625 5.546875 7.37890625 C6.206875 7.37890625 6.866875 7.37890625 7.546875 7.37890625 C8.536875 9.85390625 8.536875 9.85390625 9.546875 12.37890625 C10.206875 12.37890625 10.866875 12.37890625 11.546875 12.37890625 C13.58123031 16.10855764 14.546875 18.04795667 14.546875 22.37890625 C15.206875 22.37890625 15.866875 22.37890625 16.546875 22.37890625 C17.18128428 23.8540618 17.80378327 25.33433957 18.421875 26.81640625 C18.76992188 27.64011719 19.11796875 28.46382813 19.4765625 29.3125 C22.46364024 37.87036871 22.82973883 45.84443855 22.734375 54.87890625 C22.7334082 56.66554688 22.7334082 56.66554688 22.73242188 58.48828125 C22.68747311 67.23830814 22.68747311 67.23830814 21.546875 68.37890625 C18.56389286 68.47418845 15.60411155 68.504428 12.62084961 68.49243164 C11.68436081 68.49257767 10.74787201 68.49272369 9.78300476 68.49287415 C6.67171961 68.49217462 3.56049351 68.4843804 0.44921875 68.4765625 C-1.70169543 68.47469846 -3.85261003 68.47327449 -6.00352478 68.47227478 C-11.67694258 68.4684485 -17.35033495 68.45861727 -23.02374268 68.4475708 C-28.80814266 68.43735905 -34.59254673 68.43277767 -40.37695312 68.42773438 C-51.73568828 68.4169951 -63.09440453 68.39991736 -74.453125 68.37890625 C-74.2365625 69.2709375 -74.02 70.16296875 -73.796875 71.08203125 C-73.5184375 72.2525 -73.24 73.42296875 -72.953125 74.62890625 C-72.6746875 75.7890625 -72.39625 76.94921875 -72.109375 78.14453125 C-71.453125 81.37890625 -71.453125 81.37890625 -71.453125 85.37890625 C-70.793125 85.37890625 -70.133125 85.37890625 -69.453125 85.37890625 C-69.453125 86.36890625 -69.453125 87.35890625 -69.453125 88.37890625 C-68.793125 88.37890625 -68.133125 88.37890625 -67.453125 88.37890625 C-66.793125 90.02890625 -66.133125 91.67890625 -65.453125 93.37890625 C-64.793125 93.37890625 -64.133125 93.37890625 -63.453125 93.37890625 C-63.453125 94.03890625 -63.453125 94.69890625 -63.453125 95.37890625 C-53.38273836 99.03295583 -40.42728462 100.84015065 -30.203125 96.75390625 C-23.34748637 92.94962123 -20.8817169 87.66771754 -18.34765625 80.55078125 C-17.453125 78.37890625 -17.453125 78.37890625 -15.453125 76.37890625 C-5.058366 75.57616963 9.12861162 74.78543744 18.546875 79.37890625 C19.206875 80.03890625 19.866875 80.69890625 20.546875 81.37890625 C19.92543799 94.02275928 12.7413039 104.67425315 3.96875 113.203125 C-12.53732189 128.031967 -34.43067055 129.5618587 -55.67089844 128.5859375 C-73.11265084 127.28806052 -87.72748548 119.07494352 -99.453125 106.37890625 C-99.783125 105.38890625 -100.113125 104.39890625 -100.453125 103.37890625 C-101.113125 103.37890625 -101.773125 103.37890625 -102.453125 103.37890625 C-115.71370602 85.91282668 -116.24415362 62.03545435 -114.23046875 41.05957031 C-113.11082704 32.91851353 -110.20372533 25.64291479 -106.453125 18.37890625 C-105.793125 18.37890625 -105.133125 18.37890625 -104.453125 18.37890625 C-104.2365625 17.45078125 -104.2365625 17.45078125 -104.015625 16.50390625 C-103.453125 14.37890625 -103.453125 14.37890625 -102.453125 12.37890625 C-101.793125 12.37890625 -101.133125 12.37890625 -100.453125 12.37890625 C-100.2675 11.69828125 -100.081875 11.01765625 -99.890625 10.31640625 C-97.89693176 6.24233746 -94.95537792 3.24513682 -91.453125 0.37890625 C-90.793125 0.37890625 -90.133125 0.37890625 -89.453125 0.37890625 C-89.453125 -0.28109375 -89.453125 -0.94109375 -89.453125 -1.62109375 C-66.25937347 -23.05488581 -23.87687472 -15.77850798 0 0 Z M-66.23828125 20.9765625 C-67.67138174 22.32161989 -67.67138174 22.32161989 -67.453125 24.37890625 C-68.113125 24.37890625 -68.773125 24.37890625 -69.453125 24.37890625 C-69.453125 25.36890625 -69.453125 26.35890625 -69.453125 27.37890625 C-70.113125 27.37890625 -70.773125 27.37890625 -71.453125 27.37890625 C-71.95824744 28.98146733 -72.45704127 30.58602417 -72.953125 32.19140625 C-73.2315625 33.08472656 -73.51 33.97804688 -73.796875 34.8984375 C-74.58100851 37.4346402 -74.58100851 37.4346402 -74.453125 40.37890625 C-55.313125 40.37890625 -36.173125 40.37890625 -16.453125 40.37890625 C-17.16671129 34.52878472 -17.16671129 34.52878472 -19.015625 29.44140625 C-19.49 28.43078125 -19.964375 27.42015625 -20.453125 26.37890625 C-21.113125 26.37890625 -21.773125 26.37890625 -22.453125 26.37890625 C-22.453125 25.38890625 -22.453125 24.39890625 -22.453125 23.37890625 C-23.113125 23.37890625 -23.773125 23.37890625 -24.453125 23.37890625 C-24.69289063 22.77433594 -24.93265625 22.16976562 -25.1796875 21.546875 C-26.7320256 18.9040908 -28.13502937 18.10953136 -30.828125 16.69140625 C-31.59898437 16.27503906 -32.36984375 15.85867188 -33.1640625 15.4296875 C-44.36084803 10.28986615 -57.29837705 13.00970909 -66.23828125 20.9765625 Z " fill="#FEFEFE" transform="translate(653.453125,368.62109375)"/>
<path d="M0 0 C0 0.66 0 1.32 0 2 C0.556875 2.20625 1.11375 2.4125 1.6875 2.625 C4.30429976 4.18093499 5.89026709 6.10103563 7.76171875 8.4765625 C9.10466518 10.18911095 9.10466518 10.18911095 11.3125 12.25 C13 14 13 14 13 16 C13.66 16 14.32 16 15 16 C15 16.99 15 17.98 15 19 C15.66 19 16.32 19 17 19 C17 19.99 17 20.98 17 22 C17.66 22 18.32 22 19 22 C19.65365399 23.53836708 20.29753603 25.08088766 20.9375 26.625 C21.29714844 27.48351562 21.65679688 28.34203125 22.02734375 29.2265625 C24.19922284 35.41947074 24.28752304 41.84746127 24.60546875 48.34179688 C24.77450463 51.43981661 25.01334722 54.04004167 26 57 C27.19107905 70.60578759 24.67054965 85.06734521 18 97 C17.55011719 97.80695313 17.10023438 98.61390625 16.63671875 99.4453125 C14.28679272 103.4242433 14.28679272 103.4242433 13 105 C12.34 105 11.68 105 11 105 C11 105.66 11 106.32 11 107 C10.34 107 9.68 107 9 107 C8.90074219 107.59167969 8.80148437 108.18335938 8.69921875 108.79296875 C6.678532 115.17111408 -1.0438629 118.7717575 -6.5625 121.6875 C-27.33391364 131.90401257 -53.40896608 133.24871462 -75.27734375 125.8984375 C-81.5788525 123.4350482 -87.83577101 120.44697496 -93 116 C-93 115.34 -93 114.68 -93 114 C-93.56203125 113.77183594 -94.1240625 113.54367187 -94.703125 113.30859375 C-97.63297426 111.63937691 -99.49903363 109.56725179 -101.75 107.0625 C-102.54921875 106.18722656 -103.3484375 105.31195313 -104.171875 104.41015625 C-106 102 -106 102 -106 99 C-106.66 99 -107.32 99 -108 99 C-108 97.68 -108 96.36 -108 95 C-108.66 95 -109.32 95 -110 95 C-115.35070321 81.10375622 -117.50272975 67.92193303 -117 53 C-116.97164062 52.06542969 -116.94328125 51.13085938 -116.9140625 50.16796875 C-116.48332585 42.34291952 -114.56114767 35.38563515 -112 28 C-111.34 28 -110.68 28 -110 28 C-109.855625 27.401875 -109.71125 26.80375 -109.5625 26.1875 C-109.1127561 24.43849596 -108.57107659 22.71322977 -108 21 C-107.34 21 -106.68 21 -106 21 C-105.9175 20.46375 -105.835 19.9275 -105.75 19.375 C-102.61697437 9.45375216 -92.47121371 1.13089729 -83.6640625 -3.6953125 C-58.45430975 -16.04143775 -23.23111796 -18.25302125 0 0 Z M-62 19 C-62 19.66 -62 20.32 -62 21 C-62.99 21.33 -63.98 21.66 -65 22 C-65 22.66 -65 23.32 -65 24 C-65.66 24 -66.32 24 -67 24 C-70.21100992 28.20925135 -72.82653622 32.32318345 -73.375 37.625 C-73.25125 38.40875 -73.1275 39.1925 -73 40 C-73.66 40 -74.32 40 -75 40 C-75.04958399 45.44432256 -75.08580666 50.88851249 -75.10986328 56.33300781 C-75.11989631 58.18361706 -75.13352586 60.03421055 -75.15087891 61.88476562 C-75.17524608 64.5508209 -75.18651023 67.21666584 -75.1953125 69.8828125 C-75.20563507 70.70492218 -75.21595764 71.52703186 -75.22659302 72.37405396 C-75.2274861 76.98755336 -74.76556724 80.65633804 -73 85 C-72.34 85 -71.68 85 -71 85 C-71 86.32 -71 87.64 -71 89 C-70.34 89 -69.68 89 -69 89 C-69 89.99 -69 90.98 -69 92 C-68.34 92 -67.68 92 -67 92 C-66.6596875 92.86625 -66.6596875 92.86625 -66.3125 93.75 C-64.00198718 97.71087912 -60.23333823 100.3323213 -56 102 C-45.50953915 104.55864899 -35.93971656 103.2398454 -26.5625 98.125 C-23.83443621 95.8627032 -22.93766901 94.37560843 -22 91 C-21.34 91 -20.68 91 -20 91 C-19.319375 89.2365625 -19.319375 89.2365625 -18.625 87.4375 C-18.36976563 86.77621094 -18.11453125 86.11492187 -17.8515625 85.43359375 C-15.14429663 77.69677431 -14.62753054 70.67840266 -14.62939453 62.5690918 C-14.62505966 60.46643635 -14.58878467 58.36595187 -14.55078125 56.26367188 C-14.45433503 44.61978041 -15.72666887 30.95931085 -24 22 C-35.15199108 12.90653057 -49.28708211 12.29954445 -62 19 Z " fill="#FEFEFE" transform="translate(1003,367)"/>
<path d="M0 0 C1.73334595 -0.01522705 1.73334595 -0.01522705 3.50170898 -0.03076172 C14.33775328 0.07895082 24.53776311 1.81339736 34.1875 6.875 C35.3115625 7.45121094 36.435625 8.02742188 37.59375 8.62109375 C42.59340005 11.55649435 45.95370266 13.76325417 47.6875 19.4375 C48.3475 19.4375 49.0075 19.4375 49.6875 19.4375 C52.5269052 23.11202438 53.6875 24.70636581 53.6875 29.4375 C54.3475 29.4375 55.0075 29.4375 55.6875 29.4375 C57.55533046 34.92425196 57.9233396 39.65942976 57.6875 45.4375 C46.97920083 49.36387636 34.09000175 52.60868209 22.6875 50.4375 C19.99418805 47.19381561 19.02330051 43.66947344 18 39.625 C17.74863281 38.64917969 17.49726562 37.67335938 17.23828125 36.66796875 C17.05652344 35.93191406 16.87476563 35.19585937 16.6875 34.4375 C16.0275 34.4375 15.3675 34.4375 14.6875 34.4375 C14.6875 33.7775 14.6875 33.1175 14.6875 32.4375 C6.42122478 28.82100459 -1.96717207 26.64612085 -10.625 29.875 C-11.85586266 30.39181252 -13.08519686 30.91229045 -14.3125 31.4375 C-15.3025 31.7675 -16.2925 32.0975 -17.3125 32.4375 C-18.69867105 36.59601315 -19.21223722 40.1134101 -18.3125 44.4375 C-11.48835429 50.07937333 -3.24522928 51.54743559 5.1875 53.5 C6.55761375 53.82743121 7.92740844 54.15620052 9.296875 54.48632812 C12.03672936 55.14487809 14.7775671 55.79902078 17.51953125 56.44873047 C18.20160645 56.61056824 18.88368164 56.77240601 19.58642578 56.93914795 C21.01565099 57.27814469 22.44501854 57.61654176 23.87451172 57.95440674 C26.03251201 58.46714138 28.18827973 58.98846259 30.34375 59.51171875 C31.61025391 59.81553467 32.87675781 60.11935059 34.18164062 60.43237305 C39.03041389 61.82251229 43.34747005 63.89190551 47.6875 66.4375 C47.6875 67.0975 47.6875 67.7575 47.6875 68.4375 C48.3475 68.4375 49.0075 68.4375 49.6875 68.4375 C49.6875 69.0975 49.6875 69.7575 49.6875 70.4375 C50.3475 70.4375 51.0075 70.4375 51.6875 70.4375 C51.6875 71.0975 51.6875 71.7575 51.6875 72.4375 C52.3475 72.4375 53.0075 72.4375 53.6875 72.4375 C59.42781891 81.66301253 59.42781891 81.66301253 58.6875 87.4375 C59.3475 87.4375 60.0075 87.4375 60.6875 87.4375 C60.83482939 91.37459473 60.92224128 95.31096564 61 99.25 C61.04189453 100.35021484 61.08378906 101.45042969 61.12695312 102.58398438 C61.24594062 110.65133665 59.61185462 116.39666804 55.6875 123.4375 C55.0275 123.4375 54.3675 123.4375 53.6875 123.4375 C53.44 124.05625 53.1925 124.675 52.9375 125.3125 C51.48121361 127.78818687 50.30937494 128.38875002 47.6875 129.4375 C47.6875 130.0975 47.6875 130.7575 47.6875 131.4375 C27.77579222 143.19441289 0.90188381 146.53770041 -21.37744141 140.91650391 C-29.0181709 138.80085431 -36.37798454 136.33816495 -43.3125 132.4375 C-43.3125 131.7775 -43.3125 131.1175 -43.3125 130.4375 C-44.6325 130.1075 -45.9525 129.7775 -47.3125 129.4375 C-47.3125 128.7775 -47.3125 128.1175 -47.3125 127.4375 C-47.9003125 127.2003125 -48.488125 126.963125 -49.09375 126.71875 C-55.34211846 123.11053723 -59.21576793 114.60651902 -61.66796875 108.04296875 C-62.78668284 103.52065178 -62.62873547 99.05805158 -62.3125 94.4375 C-61.6525 94.4375 -60.9925 94.4375 -60.3125 94.4375 C-60.3125 93.7775 -60.3125 93.1175 -60.3125 92.4375 C-52.36363909 90.81291529 -44.71985773 90.24418264 -36.625 90.25 C-35.29710449 90.2490332 -35.29710449 90.2490332 -33.94238281 90.24804688 C-27.58282237 90.30233882 -27.58282237 90.30233882 -25.3125 91.4375 C-25.3125 93.0875 -25.3125 94.7375 -25.3125 96.4375 C-24.6525 96.4375 -23.9925 96.4375 -23.3125 96.4375 C-22.83264033 97.70807182 -22.3536407 98.97896848 -21.875 100.25 C-21.47474609 101.31154297 -21.47474609 101.31154297 -21.06640625 102.39453125 C-20.45024814 104.06422396 -19.87530765 105.74907704 -19.3125 107.4375 C-18.6525 107.4375 -17.9925 107.4375 -17.3125 107.4375 C-17.3125 108.0975 -17.3125 108.7575 -17.3125 109.4375 C-11.00285634 112.83500043 -5.43156758 113.77928036 1.625 113.75 C2.78418945 113.77416992 2.78418945 113.77416992 3.96679688 113.79882812 C9.95922185 113.80389357 14.75776136 112.78129091 19.5625 108.9375 C20.90490659 107.31232651 20.90490659 107.31232651 21.6875 104.4375 C22.3475 104.4375 23.0075 104.4375 23.6875 104.4375 C23.460625 103.385625 23.23375 102.33375 23 101.25 C22.87238281 100.65832031 22.74476562 100.06664062 22.61328125 99.45703125 C20.89650215 95.71198991 18.44048195 93.18239845 14.61743164 91.55786133 C12.11582545 90.76238131 9.60675557 90.08363076 7.0625 89.4375 C6.13679199 89.18677734 5.21108398 88.93605469 4.25732422 88.67773438 C-0.28007215 87.45663298 -4.83408348 86.30345164 -9.390625 85.15625 C-37.83903866 77.96104788 -37.83903866 77.96104788 -47.3125 69.4375 C-47.3125 68.7775 -47.3125 68.1175 -47.3125 67.4375 C-48.22128906 67.07011719 -48.22128906 67.07011719 -49.1484375 66.6953125 C-53.91953345 63.92222063 -55.79390229 57.84512236 -57.625 52.875 C-59.65725361 43.02942184 -59.89999489 31.06769013 -54.3125 22.4375 C-44.55977289 9.6084093 -33.20455679 3.130622 -17.17089844 0.74658203 C-11.45661441 0.12868969 -5.74348173 0.03570919 0 0 Z " fill="#FEFEFE" transform="translate(1355.3125,354.5625)"/>
<path d="M0 0 C0 0.66 0 1.32 0 2 C0.61875 2.309375 1.2375 2.61875 1.875 2.9375 C3.25 3.625 4.625 4.3125 6 5 C6 5.66 6 6.32 6 7 C6.66 7 7.32 7 8 7 C9.2890625 8.4609375 9.2890625 8.4609375 10.625 10.375 C11.07101562 11.00148438 11.51703125 11.62796875 11.9765625 12.2734375 C13 14 13 14 13 16 C13.66 16 14.32 16 15 16 C15 16.99 15 17.98 15 19 C15.66 19 16.32 19 17 19 C20.85479104 26.37275569 23.70604454 32.52746547 23 41 C15.3470493 46.10196713 3.1656553 46.28870619 -5.875 46.5 C-7.17179687 46.5309375 -8.46859375 46.561875 -9.8046875 46.59375 C-13 46 -13 46 -14.93359375 43.64453125 C-16.05395703 40.86619447 -16.25409821 38.96447917 -16 36 C-16.66 36 -17.32 36 -18 36 C-20.875 29.375 -20.875 29.375 -22 26 C-22.66 26 -23.32 26 -24 26 C-24 25.34 -24 24.68 -24 24 C-33.00943738 20.51247585 -43.34015667 18.9797961 -52.625 22.375 C-53.73875 22.91125 -54.8525 23.4475 -56 24 C-56.78375 24.28875 -57.5675 24.5775 -58.375 24.875 C-60.76352108 26.52859152 -61.06410316 28.25080304 -62 31 C-62.68390192 32.43921529 -63.37176039 33.87655387 -64.0625 35.3125 C-66.00242757 39.60189541 -66.58329624 43.3329179 -67 48 C-67.33 48.33 -67.66 48.66 -68 49 C-68.09959621 50.84159023 -68.13080411 52.68696967 -68.1328125 54.53125 C-68.13410156 55.65144531 -68.13539062 56.77164063 -68.13671875 57.92578125 C-68.13091797 59.69501953 -68.13091797 59.69501953 -68.125 61.5 C-68.12886719 62.67949219 -68.13273437 63.85898437 -68.13671875 65.07421875 C-68.13478516 66.75451172 -68.13478516 66.75451172 -68.1328125 68.46875 C-68.13112061 70.02239258 -68.13112061 70.02239258 -68.12939453 71.60742188 C-68.26965153 73.95297823 -68.26965153 73.95297823 -67 75 C-66.938125 76.258125 -66.87625 77.51625 -66.8125 78.8125 C-66.29497465 84.36251326 -63.90612385 88.65295301 -61.27734375 93.49609375 C-60 96 -60 96 -60 98 C-51.06358505 102.67130781 -41.30220156 104.77185773 -31.34375 102.35546875 C-29.18831265 101.64515417 -27.0991457 100.86015949 -25 100 C-24.01 99.67 -23.02 99.34 -22 99 C-22 98.34 -22 97.68 -22 97 C-21.34 97 -20.68 97 -20 97 C-20 96.01 -20 95.02 -20 94 C-19.34 94 -18.68 94 -18 94 C-17.86464844 93.42636719 -17.72929688 92.85273438 -17.58984375 92.26171875 C-17.01562653 90.05991893 -16.33702456 87.95147198 -15.5625 85.8125 C-15.31628906 85.11769531 -15.07007813 84.42289062 -14.81640625 83.70703125 C-14 82 -14 82 -12 81 C-9.38467154 80.8995241 -6.80253417 80.85854968 -4.1875 80.875 C-3.42791992 80.87838379 -2.66833984 80.88176758 -1.88574219 80.88525391 C16.42956696 81.05049904 16.42956696 81.05049904 23 84 C23.05449838 85.72880982 23.09301688 87.45812712 23.125 89.1875 C23.14820313 90.15042969 23.17140625 91.11335938 23.1953125 92.10546875 C22.9913544 95.12812778 22.26874632 97.26769985 21 100 C20.34 100 19.68 100 19 100 C18.7834375 100.8971875 18.7834375 100.8971875 18.5625 101.8125 C18.1127561 103.56150404 17.57107659 105.28677023 17 107 C16.34 107 15.68 107 15 107 C14.61714844 108.10408203 14.61714844 108.10408203 14.2265625 109.23046875 C9.1571577 120.67699105 -3.90838309 125.76111179 -14.8203125 130.12890625 C-33.8483381 136.80484066 -57.60935237 134.60407912 -75.66772461 126.00390625 C-85.49209465 121.11911987 -85.49209465 121.11911987 -89 118 C-89 117.34 -89 116.68 -89 116 C-89.66 116 -90.32 116 -91 116 C-91 115.34 -91 114.68 -91 114 C-91.66 114 -92.32 114 -93 114 C-94.63967583 112.11762846 -96.13858564 110.2473693 -97.625 108.25 C-98.04523438 107.71117187 -98.46546875 107.17234375 -98.8984375 106.6171875 C-101.33693444 103.37113638 -102 102.19759364 -102 98 C-102.66 98 -103.32 98 -104 98 C-104 96.68 -104 95.36 -104 94 C-104.66 94 -105.32 94 -106 94 C-112.63093259 75.37170565 -112.63839717 54.13901744 -108 35 C-107.34 35 -106.68 35 -106 35 C-106 33.35 -106 31.7 -106 30 C-105.34 30 -104.68 30 -104 30 C-104 28.68 -104 27.36 -104 26 C-103.34 26 -102.68 26 -102 26 C-101.9175 25.46375 -101.835 24.9275 -101.75 24.375 C-98.18090647 13.0728705 -85.00913637 2.67385179 -75.046875 -2.63671875 C-53.14560572 -12.43613283 -20.51391548 -13.90387605 0 0 Z " fill="#FEFEFE" transform="translate(1143,364)"/>
<path d="M0 0 C1.18366905 -0.00855011 1.18366905 -0.00855011 2.39125061 -0.01727295 C4.06151996 -0.02672425 5.73180796 -0.03325745 7.40209961 -0.03710938 C9.95915137 -0.04682369 12.5154023 -0.07784832 15.07226562 -0.109375 C16.69400564 -0.11590422 18.3157514 -0.12115501 19.9375 -0.125 C20.70319809 -0.1373468 21.46889618 -0.1496936 22.25779724 -0.16241455 C27.5525996 -0.14016136 27.5525996 -0.14016136 29.97485352 1.58300781 C32.67997217 5.71636434 33.72238262 10.49258432 35.03515625 15.203125 C35.50802239 16.87159019 35.9875711 18.53817129 36.47265625 20.203125 C36.69824219 20.986875 36.92382812 21.770625 37.15625 22.578125 C38.02410192 25.32112116 38.02410192 25.32112116 39.4453125 28.30078125 C41.60037254 33.22948956 42.74907446 38.4326636 44.03515625 43.640625 C45.69747429 50.34617354 47.50062333 56.7740659 50.03515625 63.203125 C56.03515625 80.47714635 56.03515625 80.47714635 56.03515625 86.203125 C56.69515625 86.203125 57.35515625 86.203125 58.03515625 86.203125 C58.03515625 85.213125 58.03515625 84.223125 58.03515625 83.203125 C58.69515625 83.203125 59.35515625 83.203125 60.03515625 83.203125 C59.99390625 82.336875 59.95265625 81.470625 59.91015625 80.578125 C60.04295182 76.99264459 60.86597007 74.58698124 62.03515625 71.203125 C62.43744599 69.86428594 62.83152816 68.52296197 63.21875 67.1796875 C63.42435547 66.468125 63.62996094 65.7565625 63.84179688 65.0234375 C64.25999826 63.56814848 64.6766829 62.11242269 65.09179688 60.65625 C66.33751364 56.35639275 67.75403619 52.17674798 69.35913086 47.99804688 C70.20959344 45.73997505 70.92112666 43.45628915 71.59765625 41.140625 C71.82582031 40.36589844 72.05398438 39.59117187 72.2890625 38.79296875 C72.85508039 36.82820508 73.41523831 34.86175208 73.97265625 32.89453125 C75.09830752 28.98372077 76.26987664 25.09074702 77.47265625 21.203125 C77.77913086 20.19378906 77.77913086 20.19378906 78.09179688 19.1640625 C79.47544495 14.69845689 81.14423448 10.47870923 83.03515625 6.203125 C83.38578125 5.254375 83.73640625 4.305625 84.09765625 3.328125 C85.03515625 1.203125 85.03515625 1.203125 87.03515625 0.203125 C89.55346042 0.08018094 92.0430879 0.01478946 94.5625 0 C95.67958092 -0.00855011 95.67958092 -0.00855011 96.81922913 -0.01727295 C98.39534076 -0.02672291 99.97147216 -0.03325692 101.54760742 -0.03710938 C103.95982228 -0.04682332 106.37118802 -0.07784861 108.78320312 -0.109375 C110.31379702 -0.11590432 111.84439701 -0.12115507 113.375 -0.125 C114.4579258 -0.1435202 114.4579258 -0.1435202 115.56272888 -0.16241455 C120.5499859 -0.14020873 120.5499859 -0.14020873 123.00268555 1.59545898 C124.39518208 3.76372327 124.25155909 4.98136543 123.91015625 7.515625 C123.82507813 8.25425781 123.74 8.99289062 123.65234375 9.75390625 C122.87788103 12.82724882 121.45159289 15.37025172 120.03515625 18.203125 C119.31775483 20.50039205 118.65206704 22.81435722 118.03515625 25.140625 C116.67987437 30.04521112 115.11113327 34.55293648 113.03515625 39.203125 C112.18954009 41.53203509 111.35759392 43.86592899 110.53515625 46.203125 C109.27828731 49.77488391 108.01653901 53.24482761 106.47265625 56.703125 C104.58685201 61.29464836 103.36898235 66.00682241 102.09765625 70.80078125 C101.04514831 74.17112838 99.63798528 77.06567243 98.03515625 80.203125 C97.49045425 81.83470923 96.98706342 83.48094212 96.53515625 85.140625 C95.76097285 87.97468923 94.88488966 90.54209848 93.69140625 93.234375 C90.87907259 99.64285012 89.05764343 106.45407346 86.99609375 113.13085938 C85.34389641 118.39960319 83.67273424 123.32831568 81.03515625 128.203125 C80.70515625 129.275625 80.37515625 130.348125 80.03515625 131.453125 C79.03515625 134.203125 79.03515625 134.203125 76.03515625 136.203125 C73.16888745 136.41132182 70.40214294 136.50714694 67.53515625 136.50390625 C66.28702148 136.51033394 66.28702148 136.51033394 65.01367188 136.51689148 C63.25521759 136.52263193 61.49673956 136.52313713 59.73828125 136.51879883 C57.04516226 136.51563675 54.35313957 136.53910798 51.66015625 136.56445312 C49.9518243 136.56672591 48.2434894 136.56742971 46.53515625 136.56640625 C45.72884766 136.575616 44.92253906 136.58482574 44.09179688 136.59431458 C38.45695691 136.5475717 38.45695691 136.5475717 36.36083984 134.83586121 C34.56814792 132.62794899 33.97633308 130.48501064 33.16015625 127.765625 C31.79376231 123.42562279 30.27287596 119.25701339 28.47265625 115.078125 C26.54203668 110.56744197 25.04745473 106.08373196 23.71484375 101.3671875 C23.03671661 99.00793162 23.03671661 99.00793162 21.53515625 96.203125 C18.67530325 90.48341899 16.79458869 84.62971542 17.03515625 78.203125 C16.37515625 78.203125 15.71515625 78.203125 15.03515625 78.203125 C14.85339844 77.56246094 14.67164063 76.92179687 14.484375 76.26171875 C13.18989293 71.80737277 11.82175225 67.53920451 9.91796875 63.30078125 C6.59892915 55.41439071 3.92353333 47.22972471 1.61328125 38.99609375 C1.18483975 37.2008121 1.18483975 37.2008121 0.03515625 36.203125 C-0.00548207 34.53695385 -0.00756475 32.86924405 0.03515625 31.203125 C-0.62484375 31.203125 -1.28484375 31.203125 -1.96484375 31.203125 C-2.135 30.59726562 -2.30515625 29.99140625 -2.48046875 29.3671875 C-4.06666711 23.88299105 -5.91332687 18.60659405 -8.09765625 13.33203125 C-9.82565162 9.08988045 -10.05106857 5.77304023 -9.96484375 1.203125 C-6.82133165 -0.36863105 -3.45240858 0.01911149 0 0 Z " fill="#FEFEFE" transform="translate(419.96484375,357.796875)"/>
<path d="M0 0 C1.26487244 -0.00137466 2.52974487 -0.00274933 3.83294678 -0.00416565 C5.24246239 -0.00062627 6.65197777 0.00300855 8.06149292 0.00672913 C9.53960162 0.00701107 11.01771047 0.00685312 12.49581909 0.00628662 C16.51624579 0.00599894 20.53664284 0.011891 24.55706263 0.01886058 C28.75579333 0.02509892 32.95452466 0.0256983 37.15325928 0.02688599 C45.10762551 0.02999788 53.06197804 0.03820937 61.01633823 0.04823548 C70.070624 0.059401 79.12491042 0.06490817 88.17920136 0.06993091 C106.80777898 0.08039209 125.43634383 0.0979888 144.06491089 0.12025452 C145.20797729 4.86781311 145.20797729 4.86781311 143.92037964 7.13978577 C143.36994995 7.73146545 142.81952026 8.32314514 142.25241089 8.93275452 C141.43836792 9.83960999 141.43836792 9.83960999 140.60787964 10.76478577 C139.06491089 12.12025452 139.06491089 12.12025452 137.06491089 12.12025452 C137.06491089 12.78025452 137.06491089 13.44025452 137.06491089 14.12025452 C136.40491089 14.12025452 135.74491089 14.12025452 135.06491089 14.12025452 C135.06491089 14.78025452 135.06491089 15.44025452 135.06491089 16.12025452 C134.40491089 16.12025452 133.74491089 16.12025452 133.06491089 16.12025452 C132.67819214 16.99423889 132.67819214 16.99423889 132.28366089 17.88587952 C130.96657072 20.30054482 129.51402705 21.93765629 127.56491089 23.87025452 C126.95647339 24.48384827 126.34803589 25.09744202 125.72116089 25.72962952 C124.06491089 27.12025452 124.06491089 27.12025452 122.06491089 27.12025452 C122.06491089 27.78025452 122.06491089 28.44025452 122.06491089 29.12025452 C121.40491089 29.12025452 120.74491089 29.12025452 120.06491089 29.12025452 C120.06491089 29.78025452 120.06491089 30.44025452 120.06491089 31.12025452 C119.40491089 31.12025452 118.74491089 31.12025452 118.06491089 31.12025452 C117.67819214 31.99423889 117.67819214 31.99423889 117.28366089 32.88587952 C115.96657072 35.30054482 114.51402705 36.93765629 112.56491089 38.87025452 C111.95647339 39.48384827 111.34803589 40.09744202 110.72116089 40.72962952 C109.06491089 42.12025452 109.06491089 42.12025452 107.06491089 42.12025452 C106.82772339 42.68228577 106.59053589 43.24431702 106.34616089 43.82337952 C104.77543392 46.63919493 102.85019624 48.59980868 100.56491089 50.87025452 C99.77084839 51.66947327 98.97678589 52.46869202 98.15866089 53.29212952 C96.06491089 55.12025452 96.06491089 55.12025452 94.06491089 55.12025452 C94.06491089 55.78025452 94.06491089 56.44025452 94.06491089 57.12025452 C93.40491089 57.12025452 92.74491089 57.12025452 92.06491089 57.12025452 C92.06491089 57.78025452 92.06491089 58.44025452 92.06491089 59.12025452 C91.40491089 59.12025452 90.74491089 59.12025452 90.06491089 59.12025452 C89.84834839 59.66166077 89.63178589 60.20306702 89.40866089 60.76087952 C87.59991092 63.93670795 85.1476729 66.32753533 82.56491089 68.87025452 C82.0660437 69.37685608 81.56717651 69.88345764 81.05319214 70.40541077 C77.31832228 74.12025452 77.31832228 74.12025452 75.06491089 74.12025452 C74.83803589 74.67712952 74.61116089 75.23400452 74.37741089 75.80775452 C72.68941053 78.78185039 70.59814572 80.84034317 68.06491089 83.12025452 C67.40491089 83.12025452 66.74491089 83.12025452 66.06491089 83.12025452 C66.06491089 83.78025452 66.06491089 84.44025452 66.06491089 85.12025452 C65.40491089 85.12025452 64.74491089 85.12025452 64.06491089 85.12025452 C64.06491089 85.78025452 64.06491089 86.44025452 64.06491089 87.12025452 C63.40491089 87.12025452 62.74491089 87.12025452 62.06491089 87.12025452 C61.84834839 87.66166077 61.63178589 88.20306702 61.40866089 88.76087952 C59.59991092 91.93670795 57.1476729 94.32753533 54.56491089 96.87025452 C54.0660437 97.37685608 53.56717651 97.88345764 53.05319214 98.40541077 C49.31832228 102.12025452 49.31832228 102.12025452 47.06491089 102.12025452 C46.79678589 102.73900452 46.52866089 103.35775452 46.25241089 103.99525452 C45.06491089 106.12025452 45.06491089 106.12025452 42.06491089 108.12025452 C39.00241089 108.37025452 39.00241089 108.37025452 36.06491089 108.12025452 C35.07491089 107.13025452 35.07491089 107.13025452 34.06491089 106.12025452 C34.26239554 104.4835539 34.47449891 102.8473356 34.75863647 101.22343445 C35.34059056 97.22716803 35.2488909 93.19480798 35.26803589 89.16322327 C35.276586 87.74871635 35.276586 87.74871635 35.28530884 86.30563354 C35.29471683 84.31798917 35.30127602 82.3303295 35.30514526 80.34266663 C35.31484737 77.32749304 35.34590964 74.31300282 35.37741089 71.29798889 C35.38394274 69.35723769 35.3891925 67.41648166 35.39303589 65.47572327 C35.40538269 64.58684921 35.41772949 63.69797516 35.43045044 62.78216553 C35.40142672 54.48863787 33.65035638 47.10760003 29.06491089 40.12025452 C29.06491089 39.46025452 29.06491089 38.80025452 29.06491089 38.12025452 C28.40491089 38.12025452 27.74491089 38.12025452 27.06491089 38.12025452 C27.06491089 37.13025452 27.06491089 36.14025452 27.06491089 35.12025452 C26.40491089 35.12025452 25.74491089 35.12025452 25.06491089 35.12025452 C23.33834839 33.44056702 23.33834839 33.44056702 21.43991089 31.24525452 C20.80827026 30.52595764 20.17662964 29.80666077 19.52584839 29.06556702 C18.06491089 27.12025452 18.06491089 27.12025452 18.06491089 25.12025452 C17.13678589 24.65619202 17.13678589 24.65619202 16.18991089 24.18275452 C14.81491089 23.49525452 13.43991089 22.80775452 12.06491089 22.12025452 C12.06491089 21.46025452 12.06491089 20.80025452 12.06491089 20.12025452 C11.50803589 19.87275452 10.95116089 19.62525452 10.37741089 19.37025452 C7.64080175 17.89100634 5.3884022 16.18558012 3.06491089 14.12025452 C3.06491089 13.46025452 3.06491089 12.80025452 3.06491089 12.12025452 C1.74491089 11.79025452 0.42491089 11.46025452 -0.93508911 11.12025452 C-0.93508911 10.46025452 -0.93508911 9.80025452 -0.93508911 9.12025452 C-1.53321411 8.85212952 -2.13133911 8.58400452 -2.74758911 8.30775452 C-4.95327944 7.11037977 -6.37092098 6.07546468 -7.93508911 4.12025452 C-7.93508911 3.13025452 -7.93508911 2.14025452 -7.93508911 1.12025452 C-5.20564427 -0.24446791 -3.05659895 -0.00255142 0 0 Z " fill="#FEFEFE" transform="translate(31.935089111328125,368.87974548339844)"/>
<path d="M0 0 C3 0.25 3 0.25 5 2.25 C5.13525391 4.45458984 5.13525391 4.45458984 4.9765625 7.2109375 C4.8988562 8.74016846 4.8988562 8.74016846 4.81958008 10.30029297 C4.72326294 11.94602295 4.72326294 11.94602295 4.625 13.625 C4.51407387 15.90611304 4.40603848 18.18736835 4.30078125 20.46875 C4.24744629 21.61085938 4.19411133 22.75296875 4.13916016 23.9296875 C3.41866659 41.12041109 2.87235232 57.58237233 13 72.25 C13 72.91 13 73.57 13 74.25 C13.66 74.25 14.32 74.25 15 74.25 C16.7265625 75.9296875 16.7265625 75.9296875 18.625 78.125 C19.25664062 78.84429687 19.88828125 79.56359375 20.5390625 80.3046875 C22 82.25 22 82.25 22 84.25 C22.66 84.25 23.32 84.25 24 84.25 C24 84.91 24 85.57 24 86.25 C24.66 86.25 25.32 86.25 26 86.25 C26 86.91 26 87.57 26 88.25 C26.66 88.25 27.32 88.25 28 88.25 C28 88.91 28 89.57 28 90.25 C28.5465625 90.50910156 29.093125 90.76820313 29.65625 91.03515625 C32.37473721 92.44423879 34.91955682 94.03927737 37.5 95.6875 C38.4384375 96.28433594 39.376875 96.88117188 40.34375 97.49609375 C45.2044975 100.70561673 45.2044975 100.70561673 47 102.25 C47.3125 104.875 47.3125 104.875 47 107.25 C45.22021779 109.02978221 42.61267777 108.38004966 40.20535278 108.38371277 C38.31660934 108.39011024 38.31660934 108.39011024 36.38970947 108.39663696 C34.98132321 108.3962874 33.57293697 108.39582584 32.16455078 108.39526367 C30.69145624 108.39825358 29.21836249 108.40165571 27.74526978 108.40544128 C23.73285466 108.41430343 19.72046085 108.41662034 15.7080369 108.41725707 C12.36301537 108.41820448 9.01799885 108.4218809 5.67297924 108.42542917 C-2.2172026 108.43358241 -10.10737303 108.43601264 -17.99755859 108.43530273 C-26.14604151 108.43470194 -34.29445822 108.44525203 -42.44292438 108.4610464 C-49.42977329 108.47410832 -56.41660054 108.47948719 -63.40346158 108.47884732 C-67.5803269 108.47859191 -71.75713346 108.48146699 -75.93398666 108.49202538 C-79.86227946 108.50168356 -83.79045703 108.50180129 -87.71875381 108.49450874 C-89.16234759 108.49346 -90.60594845 108.49584289 -92.04953003 108.5018692 C-94.01680079 108.50955102 -95.98411055 108.50376227 -97.9513855 108.49723816 C-99.05347288 108.49778293 -100.15556026 108.49832769 -101.29104424 108.49888897 C-104 108.25 -104 108.25 -107 106.25 C-105.65871865 100.71721442 -101.44835 97.46578635 -97 94.25 C-96.34 94.25 -95.68 94.25 -95 94.25 C-95 93.59 -95 92.93 -95 92.25 C-93.625 90.625 -93.625 90.625 -92 89.25 C-91.34 89.25 -90.68 89.25 -90 89.25 C-90 88.59 -90 87.93 -90 87.25 C-89.34 87.25 -88.68 87.25 -88 87.25 C-88 86.59 -88 85.93 -88 85.25 C-87.34 85.25 -86.68 85.25 -86 85.25 C-86 84.59 -86 83.93 -86 83.25 C-85.34 83.25 -84.68 83.25 -84 83.25 C-84 82.59 -84 81.93 -84 81.25 C-83.34 81.25 -82.68 81.25 -82 81.25 C-82 80.59 -82 79.93 -82 79.25 C-81.34 79.25 -80.68 79.25 -80 79.25 C-80 78.59 -80 77.93 -80 77.25 C-79.34 77.25 -78.68 77.25 -78 77.25 C-77.731875 76.610625 -77.46375 75.97125 -77.1875 75.3125 C-76 73.25 -76 73.25 -73 72.25 C-73 71.59 -73 70.93 -73 70.25 C-72.34 70.25 -71.68 70.25 -71 70.25 C-71 69.59 -71 68.93 -71 68.25 C-70.34 68.25 -69.68 68.25 -69 68.25 C-69 67.59 -69 66.93 -69 66.25 C-67.38161281 64.53641357 -65.70328319 62.8792274 -64 61.25 C-62.9374491 60.14588232 -61.87494885 59.04171588 -60.8125 57.9375 C-58 55.25 -58 55.25 -56 55.25 C-56 54.59 -56 53.93 -56 53.25 C-55.34 53.25 -54.68 53.25 -54 53.25 C-54 52.59 -54 51.93 -54 51.25 C-53.34 51.25 -52.68 51.25 -52 51.25 C-52 50.59 -52 49.93 -52 49.25 C-51.34 49.25 -50.68 49.25 -50 49.25 C-49.67 48.26 -49.34 47.27 -49 46.25 C-48.34 46.25 -47.68 46.25 -47 46.25 C-47 45.59 -47 44.93 -47 44.25 C-46.34 44.25 -45.68 44.25 -45 44.25 C-45 43.59 -45 42.93 -45 42.25 C-44.34 42.25 -43.68 42.25 -43 42.25 C-43 41.59 -43 40.93 -43 40.25 C-42.34 40.25 -41.68 40.25 -41 40.25 C-41 39.59 -41 38.93 -41 38.25 C-40.34 38.25 -39.68 38.25 -39 38.25 C-39 37.59 -39 36.93 -39 36.25 C-38.34 36.25 -37.68 36.25 -37 36.25 C-37 35.59 -37 34.93 -37 34.25 C-36.34 34.25 -35.68 34.25 -35 34.25 C-34.731875 33.651875 -34.46375 33.05375 -34.1875 32.4375 C-33.00082594 30.25152146 -31.90400887 28.83667406 -30 27.25 C-29.34 27.25 -28.68 27.25 -28 27.25 C-28 26.59 -28 25.93 -28 25.25 C-27.34 25.25 -26.68 25.25 -26 25.25 C-26 24.59 -26 23.93 -26 23.25 C-25.34 23.25 -24.68 23.25 -24 23.25 C-24 22.59 -24 21.93 -24 21.25 C-23.34 21.25 -22.68 21.25 -22 21.25 C-22 20.59 -22 19.93 -22 19.25 C-20.625 17.625 -20.625 17.625 -19 16.25 C-18.34 16.25 -17.68 16.25 -17 16.25 C-17 15.59 -17 14.93 -17 14.25 C-16.34 14.25 -15.68 14.25 -15 14.25 C-15 13.59 -15 12.93 -15 12.25 C-14.34 12.25 -13.68 12.25 -13 12.25 C-13 11.59 -13 10.93 -13 10.25 C-12.34 10.25 -11.68 10.25 -11 10.25 C-11 9.59 -11 8.93 -11 8.25 C-10.34 8.25 -9.68 8.25 -9 8.25 C-9 7.59 -9 6.93 -9 6.25 C-8.34 6.25 -7.68 6.25 -7 6.25 C-6.71125 5.63125 -6.4225 5.0125 -6.125 4.375 C-4.41972468 1.15392439 -3.70981453 0.30915121 0 0 Z " fill="#FEFEFE" transform="translate(201,385.75)"/>
<path d="M0 0 C1.68194008 1.68194008 1.12220343 3.7522583 1.12908131 5.99728066 C1.12471205 7.07848597 1.12471205 7.07848597 1.12025452 8.18153381 C1.12110894 8.94192898 1.12196337 9.70232414 1.12284368 10.48576158 C1.12450078 13.0531125 1.11897339 15.62039917 1.11352539 18.18774414 C1.11324354 20.02038064 1.11340121 21.85301725 1.1139679 23.68565369 C1.11425596 28.67718062 1.10835777 33.66868375 1.10139394 38.66020513 C1.09516191 43.87059106 1.09455672 49.08097749 1.09336853 54.29136658 C1.09025477 64.16531025 1.08204078 74.03924291 1.07201904 83.91318172 C1.06085929 95.15120001 1.0553478 106.38921881 1.05032361 117.62724125 C1.0398582 140.75150029 1.02225789 163.87574953 1 187 C-2.10086669 188.55043334 -5.37900766 188.1420075 -8.78125 188.1328125 C-9.9351825 188.13424759 -9.9351825 188.13424759 -11.11242676 188.13571167 C-12.73982831 188.13639254 -14.36723257 188.13454473 -15.99462891 188.13037109 C-18.48997073 188.1250215 -20.98513255 188.13031919 -23.48046875 188.13671875 C-25.05989623 188.13605795 -26.6393236 188.13477675 -28.21875 188.1328125 C-29.34222839 188.13584885 -29.34222839 188.13584885 -30.48840332 188.13894653 C-35.77007757 188.11496122 -35.77007757 188.11496122 -38 187 C-38 125.29 -38 63.58 -38 0 C-9 -1 -9 -1 0 0 Z " fill="#FFFFFF" transform="translate(346,306)"/>
<path d="M0 0 C1.27746094 -0.00257813 2.55492187 -0.00515625 3.87109375 -0.0078125 C4.53351074 -0.00362305 5.19592773 0.00056641 5.87841797 0.00488281 C7.89971943 0.01559041 9.92013225 0.00497104 11.94140625 -0.0078125 C13.21886719 -0.00523437 14.49632812 -0.00265625 15.8125 0 C16.98103516 0.00225586 18.14957031 0.00451172 19.35351562 0.00683594 C24.15662329 0.41400917 24.15662329 0.41400917 26.40625 2.265625 C27.42667755 6.76466805 27.53833468 11.1239256 27.55342102 15.72453308 C27.55709771 16.45441525 27.5607744 17.18429742 27.5645625 17.93629724 C27.57553472 20.37054332 27.57943198 22.80474664 27.58325195 25.23901367 C27.58952101 26.98870477 27.5961682 28.73839455 27.60316467 30.48808289 C27.62413794 36.21991052 27.63455413 41.95173825 27.64453125 47.68359375 C27.64857997 49.65788601 27.65269693 51.63217813 27.65688133 53.60647011 C27.67591056 62.87397987 27.69015177 72.14148173 27.6984933 81.40900725 C27.70828676 92.11237597 27.7346705 102.81553905 27.77499419 113.51883525 C27.80509785 121.79239716 27.81995631 130.06589987 27.82327431 138.33951551 C27.82562947 143.28208736 27.83465168 148.22443892 27.85973549 153.16695213 C27.88292366 157.81027789 27.88728706 162.45323677 27.87697411 167.0966053 C27.87647653 168.80306083 27.8828619 170.50953389 27.89653015 172.21593475 C27.91411163 174.54029186 27.90721273 176.86331205 27.89399719 179.18766785 C27.89638555 180.48974277 27.8987739 181.79181768 27.90123463 183.13334942 C27.40625 186.265625 27.40625 186.265625 25.57803631 188.18373585 C22.45764163 189.73818029 19.84922891 189.65467511 16.375 189.6640625 C15.70206909 189.66693268 15.02913818 189.66980286 14.33581543 189.67276001 C12.91706498 189.67479596 11.49828616 189.66929882 10.07958984 189.65673828 C7.913096 189.64067576 5.74846736 189.65660054 3.58203125 189.67578125 C2.20051673 189.67379873 0.81900337 189.66995487 -0.5625 189.6640625 C-1.81482422 189.66067871 -3.06714844 189.65729492 -4.35742188 189.65380859 C-7.89473185 189.22952353 -9.06302624 188.68878956 -11.59375 186.265625 C-12.08873463 184.23799038 -12.08873463 184.23799038 -12.08149719 181.86924744 C-12.08844353 180.96776285 -12.09538986 180.06627827 -12.10254669 179.13747597 C-12.08973412 178.14843458 -12.07692154 177.1593932 -12.0637207 176.14038086 C-12.06588844 175.09387548 -12.06805618 174.04737011 -12.07028961 172.96915245 C-12.07256064 169.47261503 -12.04611956 165.97689688 -12.01953125 162.48046875 C-12.01493371 160.01604968 -12.01200978 157.55162698 -12.01066589 155.08720398 C-12.0027149 149.16764101 -11.97607437 143.24834107 -11.94037217 137.32889694 C-11.91229723 132.57992923 -11.89337479 127.83100367 -11.88085938 123.08197021 C-11.879089 122.41198816 -11.87731862 121.74200611 -11.8754946 121.05172157 C-11.87194742 119.69862464 -11.86841075 118.34552768 -11.86488461 116.99243069 C-11.76098479 78.74716904 -11.44186129 40.50221812 -10.59375 2.265625 C-6.8883085 0.25064586 -4.24588657 0.00819669 0 0 Z " fill="#FEFEFE" transform="translate(848.59375,304.734375)"/>
<path d="M0 0 C0.7683316 -0.0033284 1.53666321 -0.0066568 2.32827759 -0.01008606 C3.95745239 -0.01515896 5.58663762 -0.01749427 7.21582031 -0.01733398 C9.70915907 -0.01951602 12.20205238 -0.03765516 14.6953125 -0.05664062 C16.27604015 -0.05957535 17.85676991 -0.06155962 19.4375 -0.0625 C20.55794205 -0.07327827 20.55794205 -0.07327827 21.70101929 -0.08427429 C25.46618614 -0.06766094 27.13816331 0.02570262 30.3515625 2.16796875 C30.73911667 4.43594265 30.73911667 4.43594265 30.75701904 7.32359314 C30.77100235 8.41584702 30.78498566 9.50810089 30.7993927 10.63345337 C30.79952866 11.83714569 30.79966461 13.04083801 30.79980469 14.28100586 C30.8175016 16.17616188 30.8175016 16.17616188 30.83555603 18.10960388 C30.86749464 21.5806588 30.8808143 25.051565 30.89060497 28.52274394 C30.90368766 32.15159069 30.93282967 35.78030946 30.96002197 39.40907288 C31.00336416 45.5047041 31.03546022 51.6003106 31.06005859 57.69604492 C31.09170262 65.52265969 31.1419016 73.34903998 31.19797897 81.17551327 C31.24599246 87.89907017 31.28532142 94.62267388 31.32333469 101.34629369 C31.3359484 103.50968182 31.34978443 105.67305962 31.36379242 107.83643913 C31.38924399 111.86612565 31.40564612 115.8957991 31.42089844 119.92553711 C31.42913132 121.1272052 31.4373642 122.32887329 31.44584656 123.56695557 C31.44990257 125.20956612 31.44990257 125.20956612 31.45404053 126.88536072 C31.46064005 128.31531325 31.46064005 128.31531325 31.46737289 129.77415371 C31.3515625 132.16796875 31.3515625 132.16796875 30.3515625 135.16796875 C27.25069581 136.71840209 23.97255484 136.30997625 20.5703125 136.30078125 C19.41638 136.30221634 19.41638 136.30221634 18.23913574 136.30368042 C16.61173419 136.30436129 14.98432993 136.30251348 13.35693359 136.29833984 C10.86159177 136.29299025 8.36642995 136.29828794 5.87109375 136.3046875 C4.29166627 136.3040267 2.7122389 136.3027455 1.1328125 136.30078125 C0.00933411 136.3038176 0.00933411 136.3038176 -1.13684082 136.30691528 C-6.41851507 136.28292997 -6.41851507 136.28292997 -8.6484375 135.16796875 C-8.67176594 117.7138114 -8.6894164 100.2596589 -8.70024967 82.80548954 C-8.70541275 74.70178266 -8.71245566 66.59808544 -8.72387695 58.49438477 C-8.73382344 51.43374753 -8.74029084 44.37311729 -8.74252599 37.31247324 C-8.74383316 33.57162417 -8.74691939 29.83079513 -8.75416756 26.08995247 C-8.76218074 21.92071762 -8.76242866 17.75151791 -8.76196289 13.58227539 C-8.76555817 12.3328717 -8.76915344 11.08346802 -8.77285767 9.79620361 C-8.771483 8.66733231 -8.77010834 7.538461 -8.76869202 6.37538147 C-8.76961381 5.38814118 -8.7705356 4.4009009 -8.77148533 3.38374424 C-8.49872255 -1.52801311 -3.86112879 0.0057213 0 0 Z " fill="#FFFFFF" transform="translate(374.6484375,357.83203125)"/>
<path d="M0 0 C12.21 0 24.42 0 37 0 C38.48136693 5.92546773 38.49855329 11.85064986 38.75 17.9375 C38.85248047 19.85079102 38.85248047 19.85079102 38.95703125 21.80273438 C39.00730469 23.03185547 39.05757813 24.26097656 39.109375 25.52734375 C39.16061523 26.64874756 39.21185547 27.77015137 39.26464844 28.92553711 C38.95009575 32.57974565 38.51763085 34.30457036 36 37 C33.15914074 37.46857513 30.92033823 37.60945813 28.0859375 37.5234375 C27.31569244 37.51873444 26.54544739 37.51403137 25.75186157 37.50918579 C23.29199857 37.487832 20.83428769 37.43119857 18.375 37.375 C16.71095771 37.3584955 15.04689254 37.34414675 13.3828125 37.33203125 C1.19554023 37.19554023 1.19554023 37.19554023 0 36 C-0.08854347 33.3339846 -0.115319 30.69330601 -0.09765625 28.02734375 C-0.09664917 27.32065552 -0.09564209 26.61396729 -0.09460449 25.88586426 C-0.08935745 23.23639309 -0.07539629 20.58694498 -0.0625 17.9375 C-0.041875 12.018125 -0.02125 6.09875 0 0 Z " fill="#FFFFFF" transform="translate(366,305)"/>
</svg>
